<?xml version="1.0" encoding="utf-8"?>
<!-- Generator: Adobe Illustrator 26.3.1, SVG Export Plug-In . SVG Version: 6.00 Build 0)  -->
<svg version="1.1" id="Calque_2_00000160899100648713607250000016713923625296371861_"
	 xmlns="http://www.w3.org/2000/svg" xmlns:xlink="http://www.w3.org/1999/xlink" x="0px" y="0px" viewBox="0 0 345.2 127.3"
	 style="enable-background:new 0 0 345.2 127.3;" xml:space="preserve">
<style type="text/css">
	.st0{fill:#FFFFFF;}
</style>
<g>
	<path class="st0" d="M45.5,58.4c-2.1,3.3-5.3,5.7-11.2,5.7h-3.5c-8.1,0-13.1-5.1-13.1-12.5v-21c0-7.4,5.1-12.5,13.1-12.5h3.5
		c5.9,0,9.1,2.4,11.2,5.7c0.6,0.8,1,1.7,1.4,2.6c0,0.2-0.2,0.4-0.4,0.5l-5.7,2.9c-0.2,0.2-0.5,0.3-0.9,0.4c-0.2,0-0.4-0.1-0.6-0.5
		c-1.3-3-3.1-4.2-5-4.2h-3.5c-2.8,0-5.1,2.3-5.1,5.1v21c0,2.8,2.3,5.1,5.1,5.1h3.5c1.9,0,3.8-1.1,5-4.2c0.1-0.4,0.4-0.5,0.6-0.5
		c0.3,0,0.6,0.2,0.8,0.4l5.7,2.9c0.3,0.2,0.4,0.3,0.4,0.5C46.5,56.7,46,57.6,45.5,58.4z"/>
	<path class="st0" d="M76.9,49.3H60.1c-0.5,0-0.7,0.2-0.7,0.7v1.6c0,2.8,2.2,5.1,5,5.1l0,0c1.8,0,3.8-1.1,5-4.2
		c0.1-0.2,0.3-0.4,0.6-0.4c0.4,0.1,0.8,0.3,1.2,0.5l5.3,2.6c0.2,0.1,0.4,0.3,0.4,0.6c-0.2,0.8-0.6,1.5-1.1,2.1
		c-2.2,3.7-5.3,6.2-11.5,6.2C56.2,64.1,51,59,51,51.6v-8.8c0.4-7.3,6.6-12.9,13.9-12.5c6.8,0.3,12.2,5.8,12.5,12.5v5.7
		C77.6,49.1,77.3,49.3,76.9,49.3L76.9,49.3L76.9,49.3z M64.4,37.7c-2.4,0-4.5,1.7-5,4.1c0,0.3,0.3,0.6,0.8,0.6h8.4
		c0.5,0,0.8-0.3,0.8-0.6C68.9,39.5,66.8,37.7,64.4,37.7z"/>
	<path class="st0" d="M109.6,63.4h-6.7c-0.5,0-0.7-0.2-0.7-0.7V43.5c0-2.7-2.2-5-4.9-5h-0.1c-2.8,0-5,2.2-5.1,4.9v19.3
		c0,0.5-0.2,0.7-0.7,0.7h-6.7c-0.5,0-0.7-0.2-0.7-0.7v-31c0-0.5,0.2-0.7,0.7-0.7h6c0.5,0,0.7,0.1,0.7,0.6c0,0.5,0.2,0.8,0.6,0.8
		s0.3-0.1,0.5-0.1c1.4-0.8,3-1.2,4.7-1.3c8,0,13.1,5.1,13.1,12.4v19.2C110.3,63.2,110.1,63.4,109.6,63.4z"/>
	<path class="st0" d="M134,64.1c-2.1-0.1-4.1-0.5-6-1.3c-4.6-1.7-7.6-6.3-7.4-11.2V39.2c0-0.5-0.2-0.7-0.7-0.7h-3.7
		c-0.5,0-0.7-0.2-0.7-0.6s0.1-1.9,0.2-3.8l8.1-8.6c0.2-0.2,0.5-0.4,0.9-0.4h3.3c0.5,0,0.7,0.2,0.7,0.7v4.7c0,0.5,0.2,0.7,0.7,0.7
		h4.7c0.5,0,0.7,0.2,0.7,0.7v6c0,0.5-0.2,0.7-0.7,0.7h-4.7c-0.5,0-0.7,0.2-0.7,0.7v12.4c0,2.5,1.8,4.7,5.4,5c0.4,0,0.6,0.3,0.6,0.7
		v6.1c0,0.3-0.2,0.7-0.6,0.7L134,64.1L134,64.1z"/>
	<path class="st0" d="M157.6,39.9c-0.8-0.3-1.7-0.6-2.6-0.6c-2.7-0.1-5,2-5.1,4.7v18.8c0,0.5-0.2,0.7-0.7,0.7h-6.7
		c-0.5,0-0.7-0.2-0.7-0.7v-31c0-0.5,0.2-0.7,0.7-0.7h6c0.5,0,0.7,0.1,0.7,0.6v1c0,0.4,0.2,0.7,0.6,0.7c0.2,0,0.4-0.1,0.5-0.2
		c1.5-1.3,3.4-2,5.4-2.1c0.7,0,1.3,0.1,2,0.2c0.3,0.1,0.6,0.4,0.6,0.7v7.1C158.3,39.5,158,39.8,157.6,39.9L157.6,39.9L157.6,39.9z"
		/>
	<path class="st0" d="M187.4,63.4h-6c-0.5,0-0.7-0.2-0.7-0.6s-0.1-0.9-0.5-0.9c-0.2,0-0.4,0.1-0.6,0.2c-1.3,0.8-2.8,1.2-4.3,1.3
		h-2.7c-5.6,0-10-3.8-10-9.5v-0.3c0-5.8,4.4-9.5,10-9.5h6.8c0.3,0,0.7-0.2,0.7-0.5v-1c-0.1-2.7-2.3-4.9-5-4.8H175
		c-1.7,0-3.5,1.1-5.1,4c-0.1,0.2-0.3,0.4-0.6,0.4c-0.3-0.1-0.6-0.2-0.9-0.3L163,39c-0.3-0.1-0.4-0.3-0.4-0.5c0.4-1,0.9-2,1.5-2.8
		c2.2-3.3,5.4-5.4,10.9-5.4c8.1,0,13.2,5.1,13.2,12.5v19.9C188.2,63.2,187.9,63.4,187.4,63.4L187.4,63.4L187.4,63.4z M180.1,50.9
		h-7.5c-1.1,0-1.9,0.9-1.9,2V54c-0.1,1.1,0.8,2,1.8,2h2.8c2.3-0.1,4.3-1.7,4.8-4L180.1,50.9L180.1,50.9z"/>
	<path class="st0" d="M202.9,63.4h-6.6c-0.5,0-0.7-0.2-0.7-0.7V19.6c0-0.5,0.2-0.7,0.7-0.7h6.6c0.5,0,0.7,0.2,0.7,0.7v43.1
		C203.6,63.2,203.4,63.4,202.9,63.4L202.9,63.4L202.9,63.4z"/>
	<path class="st0" d="M235.7,49.3h-16.8c-0.5,0-0.7,0.2-0.7,0.7v1.6c0,2.8,2.2,5.1,5.1,5.1l0,0c1.8,0,3.8-1.1,5-4.2
		c0.1-0.2,0.3-0.4,0.6-0.4c0.4,0.1,0.8,0.3,1.2,0.5l5.3,2.6c0.2,0.1,0.4,0.3,0.4,0.6c-0.2,0.8-0.6,1.5-1.1,2.1
		c-2.2,3.6-5.3,6.2-11.5,6.2c-8.1,0-13.2-5.1-13.2-12.5v-8.7c0.4-7.3,6.7-12.8,13.9-12.4c6.7,0.4,12,5.7,12.4,12.4v5.7
		C236.4,49.1,236.2,49.3,235.7,49.3L235.7,49.3L235.7,49.3z M223.3,37.7c-2.4,0-4.5,1.7-5,4.1c0,0.3,0.3,0.6,0.8,0.6h8.4
		c0.5,0,0.8-0.3,0.8-0.6C227.8,39.5,225.7,37.7,223.3,37.7z"/>
	<g>
		<path class="st0" d="M273.7,59l27.2-11.2l0,0l0,0l-0.1-0.3v-0.1l0,0l0,0c-3.6,0.9-7.5,1.3-11.3,1.4c-13.7,0-27-5.3-27.7-11.9
			c-0.2-13.8,9.7-25.6,23.3-27.7l0.1-0.3H263c-0.8,0-1.2,0.4-1.2,1.2v21.4l-18,6.8c-0.4,0.2-0.6,0.3-0.6,0.5s0.1,0.4,0.5,0.6
			l6.5,4.2l1.4,0.9l1.1,0.7l2.8,1.8c3.4,2.2,9.7,5.8,10.8,6.3l-0.1,0.2c-1.4-0.5-2.8-0.8-4.2-1.1h-0.3v10.1c0,0.9,0.4,1.2,1.2,1.2
			h22.2l-0.1-0.3C281,62.9,277.1,61.3,273.7,59z"/>
		<path class="st0" d="M335.8,32.3l-17.9-9.7l0,0l0,0l-0.1,0.2c-0.6,1.4-1,2.9-1.4,4.4l-0.2-0.1l0,0l0,0c0.1-1.3,0.6-8.9,0.6-13.2
			V10c0-0.8-0.4-1.2-1.2-1.2h-22.2l0.1,0.3c13.4,2.1,23.3,13.6,23.3,27.2c0,0,0,3.4-6.8,7.3l0.2,0.3l1.2-0.5l1.7-0.7l0.6-0.2l2.6-1
			C314.2,53,305,61.8,293.4,63.6l-0.1,0.3h22.2c0.9,0,1.2-0.4,1.2-1.2V41.2l0.5-0.2l1.6-0.6l0,0l0,0l0.4-0.2l16.5-6.8
			C336.5,33.1,336.6,32.8,335.8,32.3z"/>
	</g>
	<path class="st0" d="M77.8,109.6h-5.2c-0.4,0-0.6-0.2-0.6-0.6v-5.8c0-4.3,0.5-11.9,0.6-13.2h-0.1c-0.2,0.4-0.8,3-1.4,4.4l-4.5,10.2
		c-0.1,0.2-0.3,0.3-0.5,0.3h-2.8c-0.2,0-0.4-0.1-0.5-0.3l-4.5-10.2c-0.7-1.4-1.3-4-1.5-4.4h-0.2c0.1,1.3,0.6,8.9,0.6,13.2v5.8
		c0,0.4-0.2,0.6-0.5,0.6h-5.2c-0.4,0-0.5-0.2-0.5-0.6V75.7c0-0.4,0.2-0.6,0.5-0.6H56c0.2,0,0.4,0.1,0.5,0.3l7.3,17.4
		c0.2,0.4,0.6,2,0.7,2.5h0.2c0.1-0.4,0.6-2.1,0.8-2.5l7.3-17.4c0.1-0.2,0.3-0.3,0.5-0.3h4.6c0.4,0,0.6,0.2,0.6,0.6V109
		C78.4,109.4,78.2,109.6,77.8,109.6L77.8,109.6L77.8,109.6z"/>
	<path class="st0" d="M103.9,98.6h-13c-0.4,0-0.6,0.2-0.6,0.6v1.3c0,2.1,1.7,3.9,3.9,3.9c1.4,0,2.9-0.9,3.9-3.2
		c0.1-0.2,0.3-0.3,0.4-0.3s0.5,0.2,0.9,0.4l4.1,2c0.2,0.1,0.3,0.3,0.3,0.4c0,0.2-0.4,0.9-0.8,1.6c-1.7,2.8-4.1,4.8-8.9,4.8
		c-6.2,0-10.2-4-10.2-9.7v-6.8c0-4.5,4-9.7,10.2-9.7s10.2,5.2,10.2,9.7V98C104.4,98.5,104.2,98.6,103.9,98.6z M103.2,73.5l-7.8,7.7
		c-0.3,0.2-0.6,0.4-0.9,0.4h-3.7c-0.4,0-0.6-0.2-0.6-0.4c0-0.2,0.2-0.4,0.3-0.7l4.9-7.6c0.2-0.3,0.5-0.4,0.8-0.4h6.7
		c0.4,0,0.6,0.2,0.6,0.4S103.4,73.2,103.2,73.5L103.2,73.5z M94.2,89.7c-2.7,0-3.9,2.5-3.9,3.2c0,0.3,0.2,0.5,0.6,0.5h6.5
		c0.4,0,0.6-0.2,0.6-0.5C98,92.2,96.9,89.7,94.2,89.7L94.2,89.7z"/>
	<path class="st0" d="M128.6,109.6h-4.7c-0.4,0-0.6-0.1-0.6-0.5s-0.2-0.6-0.4-0.6c-0.1,0-0.2,0.1-0.4,0.1c-1.2,0.6-2.6,1-3.6,1
		c-6.2,0-10.2-4-10.2-9.7v-5.8c0-5.7,4.3-9.6,9.7-9.6c1.1,0,2.5,0.4,3.6,1c0.2,0.1,0.2,0.1,0.4,0.1c0.3,0,0.4-0.2,0.4-0.6v-9.4
		c0-0.4,0.2-0.6,0.6-0.6h5.2c0.4,0,0.6,0.2,0.6,0.6V109C129.1,109.4,129,109.6,128.6,109.6L128.6,109.6z M122.8,94.2
		c0-2.2-1.7-3.9-3.9-3.9S115,92,115,94.2v5.8c0,2.2,1.7,3.9,3.9,3.9s3.9-1.7,3.9-3.9V94.2z"/>
	<path class="st0" d="M138.3,81.9c-2,0-3.7-1.7-3.7-3.7s1.7-3.7,3.7-3.7s3.7,1.7,3.7,3.7S140.3,81.9,138.3,81.9z M140.9,109.6h-5.1
		c-0.4,0-0.6-0.2-0.6-0.6V85c0-0.4,0.2-0.6,0.6-0.6h5.1c0.4,0,0.6,0.2,0.6,0.6v24C141.4,109.4,141.3,109.6,140.9,109.6z"/>
	<path class="st0" d="M159.2,110.1c-1,0-3-0.3-4.6-1c-3.8-1.5-5.8-4.7-5.8-8.7v-9.6c0-0.4-0.2-0.6-0.6-0.6h-2.8
		c-0.4,0-0.6-0.2-0.6-0.5s0.1-1.5,0.1-3l6.3-6.7c0.2-0.2,0.4-0.3,0.7-0.3h2.6c0.4,0,0.6,0.2,0.6,0.6V84c0,0.4,0.2,0.6,0.6,0.6h3.6
		c0.4,0,0.6,0.2,0.6,0.6v4.7c0,0.4-0.2,0.6-0.6,0.6h-3.6c-0.4,0-0.6,0.2-0.6,0.6v9.6c0,2,1.4,3.7,4.2,3.9c0.3,0,0.5,0.2,0.5,0.6v4.7
		C159.7,110,159.5,110.1,159.2,110.1L159.2,110.1L159.2,110.1z"/>
	<path class="st0" d="M183.9,98.6h-13c-0.4,0-0.6,0.2-0.6,0.6v1.3c0,2.1,1.7,3.9,3.9,3.9c1.4,0,2.9-0.9,3.9-3.2
		c0.1-0.2,0.3-0.3,0.4-0.3s0.5,0.2,0.9,0.4l4.1,2c0.2,0.1,0.3,0.3,0.3,0.4c0,0.2-0.4,0.9-0.8,1.6c-1.7,2.8-4.1,4.8-8.9,4.8
		c-6.2,0-10.2-4-10.2-9.7v-6.8c0-4.5,4-9.7,10.2-9.7s10.2,5.2,10.2,9.7V98C184.5,98.5,184.3,98.6,183.9,98.6L183.9,98.6L183.9,98.6z
		 M174.3,89.7c-2.7,0-3.9,2.5-3.9,3.2c0,0.3,0.2,0.5,0.6,0.5h6.5c0.4,0,0.6-0.2,0.6-0.5C178.1,92.2,177,89.7,174.3,89.7L174.3,89.7
		L174.3,89.7z"/>
	<path class="st0" d="M201.6,91.4c-0.3,0-0.8-0.5-2-0.5c-2.2,0-3.9,1.6-3.9,3.8V109c0,0.4-0.2,0.6-0.6,0.6H190
		c-0.4,0-0.6-0.2-0.6-0.6V85c0-0.4,0.2-0.6,0.6-0.6h4.6c0.4,0,0.6,0.1,0.6,0.5v0.8c0,0.3,0.2,0.6,0.4,0.6s0.3-0.1,0.4-0.2
		c0.6-0.6,2.4-1.6,4.2-1.6c0.6,0,1.1,0.1,1.5,0.2c0.3,0.1,0.4,0.3,0.4,0.6v5.5C202.1,91.1,201.9,91.4,201.6,91.4L201.6,91.4
		L201.6,91.4z"/>
	<path class="st0" d="M217.4,91.4c-0.3,0-0.8-0.5-2-0.5c-2.2,0-3.9,1.6-3.9,3.8V109c0,0.4-0.2,0.6-0.6,0.6h-5.1
		c-0.4,0-0.6-0.2-0.6-0.6V85c0-0.4,0.2-0.6,0.6-0.6h4.6c0.4,0,0.6,0.1,0.6,0.5v0.8c0,0.3,0.2,0.6,0.4,0.6s0.3-0.1,0.4-0.2
		c0.6-0.6,2.4-1.6,4.2-1.6c0.6,0,1.1,0.1,1.5,0.2c0.3,0.1,0.4,0.3,0.4,0.6v5.5C218,91.1,217.7,91.4,217.4,91.4L217.4,91.4
		L217.4,91.4z"/>
	<path class="st0" d="M239.8,109.6h-4.6c-0.4,0-0.6-0.1-0.6-0.4c0-0.4-0.1-0.7-0.4-0.7c-0.2,0-0.3,0.1-0.5,0.2c-1.2,0.7-2.3,1-3.3,1
		h-2.1c-4.3,0-7.7-3-7.7-7.3V102c0-4.5,3.4-7.3,7.7-7.3h5.2c0.4,0,0.6-0.2,0.6-0.6v-0.7c0-2.1-1.8-3.7-4-3.7c-1.3,0-2.7,0.8-4,3.1
		c-0.1,0.2-0.3,0.3-0.4,0.3c-0.2,0-0.4-0.2-0.7-0.3l-4.2-2.2c-0.2-0.1-0.3-0.2-0.3-0.4c0-0.3,0.6-1.4,1.1-2.2
		c1.8-2.6,4.2-4.2,8.4-4.2c6.2,0,10.2,3.9,10.2,9.6v15.4C240.3,109.4,240.2,109.6,239.8,109.6L239.8,109.6L239.8,109.6z M234.1,99.9
		h-5.8c-0.8,0-1.5,0.7-1.5,1.5v0.8c0,0.9,0.6,1.6,1.5,1.6h2.1c1.8,0,3.4-1.5,3.7-3.1V99.9L234.1,99.9L234.1,99.9z"/>
	<path class="st0" d="M265.9,109.6h-5.2c-0.4,0-0.6-0.2-0.6-0.6V94.2c0-2.2-1.7-3.9-3.9-3.9c-2.2,0-3.9,1.7-3.9,3.9V109
		c0,0.4-0.2,0.6-0.6,0.6h-5.1c-0.4,0-0.6-0.2-0.6-0.6V85c0-0.4,0.2-0.6,0.6-0.6h4.6c0.4,0,0.6,0.1,0.6,0.5s0.2,0.6,0.4,0.6
		s0.2-0.1,0.4-0.1c1.1-0.6,2.5-1,3.6-1c6.2,0,10.2,3.9,10.2,9.6v15C266.4,109.4,266.3,109.6,265.9,109.6L265.9,109.6z"/>
	<path class="st0" d="M291.4,98.6h-13c-0.4,0-0.5,0.2-0.5,0.6v1.3c0,2.1,1.7,3.9,3.9,3.9c1.4,0,2.9-0.9,3.9-3.2
		c0.1-0.2,0.3-0.3,0.4-0.3s0.5,0.2,0.9,0.4l4.1,2c0.2,0.1,0.3,0.3,0.3,0.4c0,0.2-0.4,0.9-0.8,1.6c-1.7,2.8-4.1,4.8-8.9,4.8
		c-6.2,0-10.2-4-10.2-9.7v-6.8c0-4.5,4-9.7,10.2-9.7s10.2,5.2,10.2,9.7V98C291.9,98.5,291.8,98.6,291.4,98.6z M290.7,73.5l-7.8,7.7
		c-0.3,0.2-0.5,0.4-0.9,0.4h-3.7c-0.4,0-0.5-0.2-0.5-0.4c0-0.2,0.2-0.4,0.3-0.7l4.9-7.6c0.2-0.3,0.5-0.4,0.8-0.4h6.7
		c0.4,0,0.6,0.2,0.6,0.4S291,73.2,290.7,73.5L290.7,73.5L290.7,73.5z M281.7,89.7c-2.7,0-3.9,2.5-3.9,3.2c0,0.3,0.2,0.5,0.6,0.5h6.5
		c0.4,0,0.6-0.2,0.6-0.5C285.6,92.2,284.5,89.7,281.7,89.7L281.7,89.7L281.7,89.7z"/>
	<path class="st0" d="M316.4,98.6h-13c-0.4,0-0.5,0.2-0.5,0.6v1.3c0,2.1,1.7,3.9,3.9,3.9c1.4,0,2.9-0.9,3.9-3.2
		c0.1-0.2,0.3-0.3,0.4-0.3s0.5,0.2,0.9,0.4l4.1,2c0.2,0.1,0.3,0.3,0.3,0.4c0,0.2-0.4,0.9-0.8,1.6c-1.7,2.8-4.1,4.8-8.9,4.8
		c-6.2,0-10.2-4-10.2-9.7v-6.8c0-4.5,4-9.7,10.2-9.7s10.2,5.2,10.2,9.7V98C316.9,98.5,316.8,98.6,316.4,98.6z M306.7,89.7
		c-2.7,0-3.9,2.5-3.9,3.2c0,0.3,0.2,0.5,0.6,0.5h6.5c0.4,0,0.6-0.2,0.6-0.5C310.6,92.2,309.5,89.7,306.7,89.7L306.7,89.7L306.7,89.7
		z"/>
</g>
</svg>
