<?xml version="1.0" encoding="UTF-8" standalone="no"?>
<!-- Created with Inkscape (http://www.inkscape.org/) -->

<svg
   version="1.1"
   id="svg249"
   width="199.2657"
   height="137.68893"
   viewBox="0 0 199.26569 137.68894"
   sodipodi:docname="plankton_food_web_boat.svg"
   inkscape:version="1.2.1 (9c6d41e410, 2022-07-14, custom)"
   xml:space="preserve"
   xmlns:inkscape="http://www.inkscape.org/namespaces/inkscape"
   xmlns:sodipodi="http://sodipodi.sourceforge.net/DTD/sodipodi-0.dtd"
   xmlns="http://www.w3.org/2000/svg"
   xmlns:svg="http://www.w3.org/2000/svg"><defs
     id="defs253"><marker
       style="overflow:visible"
       id="marker9741"
       refX="2.2179856"
       refY="0.040954135"
       orient="auto"
       inkscape:stockid="Arrow2Mstart"
       inkscape:isstock="true"
       viewBox="0 0 6.9304588 5.1962256"
       markerWidth="5"
       markerHeight="3.7488322"
       preserveAspectRatio="xMidYMid"><path
         transform="scale(0.6)"
         d="M 8.7185878,4.0337352 -2.2072895,0.01601326 8.7185884,-4.0017078 c -1.7454984,2.3720609 -1.7354408,5.6174519 -6e-7,8.035443 z"
         style="fill:context-stroke;fill-rule:evenodd;stroke:context-stroke;stroke-width:0.625;stroke-linejoin:round"
         id="path9739" /></marker><marker
       style="overflow:visible"
       id="Arrow2Mstart-1-3"
       refX="0"
       refY="0"
       orient="auto"
       inkscape:stockid="Arrow2Mstart"
       inkscape:isstock="true"
       viewBox="0 0 6.9304588 5.1962256"
       markerWidth="5"
       markerHeight="3.7488322"
       preserveAspectRatio="xMidYMid"><path
         transform="scale(0.6)"
         d="M 8.7185878,4.0337352 -2.2072895,0.01601326 8.7185884,-4.0017078 c -1.7454984,2.3720609 -1.7354408,5.6174519 -6e-7,8.035443 z"
         style="fill:context-stroke;fill-rule:evenodd;stroke:context-stroke;stroke-width:0.625;stroke-linejoin:round"
         id="path752666-1-6" /></marker><marker
       style="overflow:visible"
       id="marker4165"
       refX="0"
       refY="0"
       orient="auto"
       inkscape:stockid="Arrow2Mstart"
       inkscape:isstock="true"
       viewBox="0 0 6.9304588 5.1962256"
       markerWidth="5"
       markerHeight="3.7488322"
       preserveAspectRatio="xMidYMid"><path
         transform="scale(0.6)"
         d="M 8.7185878,4.0337352 -2.2072895,0.01601326 8.7185884,-4.0017078 c -1.7454984,2.3720609 -1.7354408,5.6174519 -6e-7,8.035443 z"
         style="fill:context-stroke;fill-rule:evenodd;stroke:context-stroke;stroke-width:0.625;stroke-linejoin:round"
         id="path4163" /></marker><marker
       style="overflow:visible"
       id="marker4169"
       refX="0"
       refY="0"
       orient="auto"
       inkscape:stockid="Arrow2Mstart"
       inkscape:isstock="true"
       viewBox="0 0 6.9304588 5.1962256"
       markerWidth="5"
       markerHeight="3.7488322"
       preserveAspectRatio="xMidYMid"><path
         transform="scale(0.6)"
         d="M 8.7185878,4.0337352 -2.2072895,0.01601326 8.7185884,-4.0017078 c -1.7454984,2.3720609 -1.7354408,5.6174519 -6e-7,8.035443 z"
         style="fill:context-stroke;fill-rule:evenodd;stroke:context-stroke;stroke-width:0.625;stroke-linejoin:round"
         id="path4167" /></marker><marker
       style="overflow:visible"
       id="marker4175"
       refX="0"
       refY="0"
       orient="auto"
       inkscape:stockid="Arrow2Mstart"
       inkscape:isstock="true"
       viewBox="0 0 6.9304588 5.1962256"
       markerWidth="5"
       markerHeight="3.7488322"
       preserveAspectRatio="xMidYMid"><path
         transform="scale(0.6)"
         d="M 8.7185878,4.0337352 -2.2072895,0.01601326 8.7185884,-4.0017078 c -1.7454984,2.3720609 -1.7354408,5.6174519 -6e-7,8.035443 z"
         style="fill:context-stroke;fill-rule:evenodd;stroke:context-stroke;stroke-width:0.625;stroke-linejoin:round"
         id="path4173" /></marker><marker
       style="overflow:visible"
       id="marker4179"
       refX="0"
       refY="0"
       orient="auto"
       inkscape:stockid="Arrow2Mstart"
       inkscape:isstock="true"
       viewBox="0 0 6.9304588 5.1962256"
       markerWidth="5"
       markerHeight="3.7488322"
       preserveAspectRatio="xMidYMid"><path
         transform="scale(0.6)"
         d="M 8.7185878,4.0337352 -2.2072895,0.01601326 8.7185884,-4.0017078 c -1.7454984,2.3720609 -1.7354408,5.6174519 -6e-7,8.035443 z"
         style="fill:context-stroke;fill-rule:evenodd;stroke:context-stroke;stroke-width:0.625;stroke-linejoin:round"
         id="path4177" /></marker><marker
       style="overflow:visible"
       id="marker4183"
       refX="0"
       refY="0"
       orient="auto"
       inkscape:stockid="Arrow2Mstart"
       inkscape:isstock="true"
       viewBox="0 0 6.9304588 5.1962256"
       markerWidth="5"
       markerHeight="3.7488322"
       preserveAspectRatio="xMidYMid"><path
         transform="scale(0.6)"
         d="M 8.7185878,4.0337352 -2.2072895,0.01601326 8.7185884,-4.0017078 c -1.7454984,2.3720609 -1.7354408,5.6174519 -6e-7,8.035443 z"
         style="fill:context-stroke;fill-rule:evenodd;stroke:context-stroke;stroke-width:0.625;stroke-linejoin:round"
         id="path4181" /></marker><marker
       style="overflow:visible"
       id="marker4187"
       refX="0"
       refY="0"
       orient="auto"
       inkscape:stockid="Arrow2Mstart"
       inkscape:isstock="true"
       viewBox="0 0 6.9304588 5.1962256"
       markerWidth="5"
       markerHeight="3.7488322"
       preserveAspectRatio="xMidYMid"><path
         transform="scale(0.6)"
         d="M 8.7185878,4.0337352 -2.2072895,0.01601326 8.7185884,-4.0017078 c -1.7454984,2.3720609 -1.7354408,5.6174519 -6e-7,8.035443 z"
         style="fill:context-stroke;fill-rule:evenodd;stroke:context-stroke;stroke-width:0.625;stroke-linejoin:round"
         id="path4185" /></marker><marker
       style="overflow:visible"
       id="marker4191"
       refX="0"
       refY="0"
       orient="auto"
       inkscape:stockid="Arrow2Mstart"
       inkscape:isstock="true"
       viewBox="0 0 6.9304588 5.1962256"
       markerWidth="5"
       markerHeight="3.7488322"
       preserveAspectRatio="xMidYMid"><path
         transform="scale(0.6)"
         d="M 8.7185878,4.0337352 -2.2072895,0.01601326 8.7185884,-4.0017078 c -1.7454984,2.3720609 -1.7354408,5.6174519 -6e-7,8.035443 z"
         style="fill:context-stroke;fill-rule:evenodd;stroke:context-stroke;stroke-width:0.625;stroke-linejoin:round"
         id="path4189" /></marker><marker
       style="overflow:visible"
       id="marker4195"
       refX="0"
       refY="0"
       orient="auto"
       inkscape:stockid="Arrow2Mstart"
       inkscape:isstock="true"
       viewBox="0 0 6.9304588 5.1962256"
       markerWidth="5"
       markerHeight="3.7488322"
       preserveAspectRatio="xMidYMid"><path
         transform="scale(0.6)"
         d="M 8.7185878,4.0337352 -2.2072895,0.01601326 8.7185884,-4.0017078 c -1.7454984,2.3720609 -1.7354408,5.6174519 -6e-7,8.035443 z"
         style="fill:context-stroke;fill-rule:evenodd;stroke:context-stroke;stroke-width:0.625;stroke-linejoin:round"
         id="path4193" /></marker><marker
       style="overflow:visible"
       id="marker4199"
       refX="0"
       refY="0"
       orient="auto"
       inkscape:stockid="Arrow2Mstart"
       inkscape:isstock="true"
       viewBox="0 0 6.9304588 5.1962256"
       markerWidth="5"
       markerHeight="3.7488322"
       preserveAspectRatio="xMidYMid"><path
         transform="scale(0.6)"
         d="M 8.7185878,4.0337352 -2.2072895,0.01601326 8.7185884,-4.0017078 c -1.7454984,2.3720609 -1.7354408,5.6174519 -6e-7,8.035443 z"
         style="fill:context-stroke;fill-rule:evenodd;stroke:context-stroke;stroke-width:0.625;stroke-linejoin:round"
         id="path4197" /></marker><marker
       style="overflow:visible"
       id="marker4203"
       refX="0"
       refY="0"
       orient="auto"
       inkscape:stockid="Arrow2Mstart"
       inkscape:isstock="true"
       viewBox="0 0 6.9304588 5.1962256"
       markerWidth="5"
       markerHeight="3.7488322"
       preserveAspectRatio="xMidYMid"><path
         transform="scale(0.6)"
         d="M 8.7185878,4.0337352 -2.2072895,0.01601326 8.7185884,-4.0017078 c -1.7454984,2.3720609 -1.7354408,5.6174519 -6e-7,8.035443 z"
         style="fill:context-stroke;fill-rule:evenodd;stroke:context-stroke;stroke-width:0.625;stroke-linejoin:round"
         id="path4201" /></marker><marker
       style="overflow:visible"
       id="marker4207"
       refX="0"
       refY="0"
       orient="auto"
       inkscape:stockid="Arrow2Mstart"
       inkscape:isstock="true"
       viewBox="0 0 6.9304588 5.1962256"
       markerWidth="5"
       markerHeight="3.7488322"
       preserveAspectRatio="xMidYMid"><path
         transform="scale(0.6)"
         d="M 8.7185878,4.0337352 -2.2072895,0.01601326 8.7185884,-4.0017078 c -1.7454984,2.3720609 -1.7354408,5.6174519 -6e-7,8.035443 z"
         style="fill:context-stroke;fill-rule:evenodd;stroke:context-stroke;stroke-width:0.625;stroke-linejoin:round"
         id="path4205" /></marker><marker
       style="overflow:visible"
       id="marker4211"
       refX="0"
       refY="0"
       orient="auto"
       inkscape:stockid="Arrow2Mstart"
       inkscape:isstock="true"
       viewBox="0 0 6.9304588 5.1962256"
       markerWidth="5"
       markerHeight="3.7488322"
       preserveAspectRatio="xMidYMid"><path
         transform="scale(0.6)"
         d="M 8.7185878,4.0337352 -2.2072895,0.01601326 8.7185884,-4.0017078 c -1.7454984,2.3720609 -1.7354408,5.6174519 -6e-7,8.035443 z"
         style="fill:context-stroke;fill-rule:evenodd;stroke:context-stroke;stroke-width:0.625;stroke-linejoin:round"
         id="path4209" /></marker><marker
       style="overflow:visible"
       id="marker4219"
       refX="0"
       refY="0"
       orient="auto"
       inkscape:stockid="Arrow2Mstart"
       inkscape:isstock="true"
       viewBox="0 0 6.9304588 5.1962256"
       markerWidth="5"
       markerHeight="3.7488322"
       preserveAspectRatio="xMidYMid"><path
         transform="scale(0.6)"
         d="M 8.7185878,4.0337352 -2.2072895,0.01601326 8.7185884,-4.0017078 c -1.7454984,2.3720609 -1.7354408,5.6174519 -6e-7,8.035443 z"
         style="fill:context-stroke;fill-rule:evenodd;stroke:context-stroke;stroke-width:0.625;stroke-linejoin:round"
         id="path4217" /></marker><marker
       style="overflow:visible"
       id="marker4223"
       refX="2.2179856"
       refY="0.040954135"
       orient="auto"
       inkscape:stockid="Arrow2Mstart"
       inkscape:isstock="true"
       viewBox="0 0 6.9304588 5.1962256"
       markerWidth="5"
       markerHeight="3.7488322"
       preserveAspectRatio="xMidYMid"><path
         transform="scale(0.6)"
         d="M 8.7185878,4.0337352 -2.2072895,0.01601326 8.7185884,-4.0017078 c -1.7454984,2.3720609 -1.7354408,5.6174519 -6e-7,8.035443 z"
         style="fill:context-stroke;fill-rule:evenodd;stroke:context-stroke;stroke-width:0.625;stroke-linejoin:round"
         id="path4221" /></marker><marker
       style="overflow:visible"
       id="marker9737"
       refX="2.1551077"
       refY="-0.080467932"
       orient="151.01011658"
       inkscape:stockid="Arrow2Mstart"
       inkscape:isstock="true"
       viewBox="0 0 6.9304588 5.1962256"
       markerWidth="5"
       markerHeight="3.7488322"
       preserveAspectRatio="xMidYMid"><path
         transform="scale(0.6)"
         d="M 8.7185878,4.0337352 -2.2072895,0.01601326 8.7185884,-4.0017078 c -1.7454984,2.3720609 -1.7354408,5.6174519 -6e-7,8.035443 z"
         style="fill:context-stroke;fill-rule:evenodd;stroke:context-stroke;stroke-width:0.625;stroke-linejoin:round"
         id="path9735" /></marker><marker
       style="overflow:visible"
       id="marker4229"
       refX="0"
       refY="0"
       orient="auto"
       inkscape:stockid="Arrow2Mstart"
       inkscape:isstock="true"
       viewBox="0 0 6.9304588 5.1962256"
       markerWidth="5"
       markerHeight="3.7488322"
       preserveAspectRatio="xMidYMid"><path
         transform="scale(0.6)"
         d="M 8.7185878,4.0337352 -2.2072895,0.01601326 8.7185884,-4.0017078 c -1.7454984,2.3720609 -1.7354408,5.6174519 -6e-7,8.035443 z"
         style="fill:context-stroke;fill-rule:evenodd;stroke:context-stroke;stroke-width:0.625;stroke-linejoin:round"
         id="path4227" /></marker><marker
       style="overflow:visible"
       id="marker23921-5"
       refX="0"
       refY="0"
       orient="auto-start-reverse"
       inkscape:stockid="Arrow2"
       markerWidth="5"
       markerHeight="3.6363637"
       viewBox="0 0 7.7 5.6"
       inkscape:isstock="true"
       inkscape:collect="always"
       preserveAspectRatio="xMidYMid"><path
         transform="scale(0.7)"
         d="M -2,-4 9,0 -2,4 c 2,-2.33 2,-5.66 0,-8 z"
         style="fill:context-stroke;fill-rule:evenodd;stroke:none"
         id="path23919-6" /></marker></defs><sodipodi:namedview
     id="namedview251"
     pagecolor="#ffffff"
     bordercolor="#666666"
     borderopacity="1.0"
     inkscape:showpageshadow="2"
     inkscape:pageopacity="0.0"
     inkscape:pagecheckerboard="0"
     inkscape:deskcolor="#d1d1d1"
     showgrid="false"
     inkscape:zoom="3.9073117"
     inkscape:cx="115.80852"
     inkscape:cy="127.45336"
     inkscape:window-width="1916"
     inkscape:window-height="1037"
     inkscape:window-x="0"
     inkscape:window-y="20"
     inkscape:window-maximized="1"
     inkscape:current-layer="g33923" /><g
     inkscape:groupmode="layer"
     inkscape:label="Image"
     id="g255"
     transform="translate(-1002.8742,-536.98317)"><g
       id="g3165"
       transform="translate(147.86612,-392.76923)" /><g
       id="g32380"
       transform="matrix(-1.6790714,0,0,1.6842113,3614.067,-643.0147)"
       style="stroke-width:0.594658"><rect
         style="fill:#ff7d7d;fill-opacity:1;stroke:none;stroke-width:1.78398;stroke-linecap:round;stroke-linejoin:bevel;stroke-dasharray:none;stroke-opacity:1"
         id="rect32181"
         width="26.311249"
         height="37.162048"
         x="1479.9753"
         y="704.10132"
         rx="0"
         ry="0" /><rect
         style="fill:#ff9999;fill-opacity:1;stroke:none;stroke-width:1.78398;stroke-linecap:round;stroke-linejoin:bevel;stroke-dasharray:none;stroke-opacity:1"
         id="rect32304"
         width="16.213274"
         height="10.020354"
         x="1484.7841"
         y="709.4707" /><rect
         style="fill:#ff7d7d;fill-opacity:1;stroke:none;stroke-width:1.78398;stroke-linecap:round;stroke-linejoin:bevel;stroke-dasharray:none;stroke-opacity:1"
         id="rect32375"
         width="38.227322"
         height="5.5777497"
         x="1475.0934"
         y="700.62341"
         rx="0"
         ry="0" /></g><path
       id="path30666"
       style="fill:#ff7d7d;fill-opacity:1;stroke:none;stroke-width:1px;stroke-linecap:butt;stroke-linejoin:miter;stroke-opacity:1"
       d="m 1202.1399,568.35077 c 0,0 -74.5246,14.23669 -112.959,16.92383 -28.4318,1.98779 -86.3067,0.1914 -86.3067,0.1914 l 10.6797,22.42578 c 19.8605,7.60888 39.3143,18.18076 60.168,17.80079 26.7544,-0.48751 50.0056,-26.21171 76.6582,-23.83008 5.7152,0.5107 12.5196,3.08355 19.3359,6.37695 0.4637,-0.99692 0.9306,-1.96847 1.3965,-2.7832 8.008,-14.00269 31.0274,-37.10547 31.0274,-37.10547 z" /><path
       style="fill:#ff9999;fill-opacity:1;stroke:none;stroke-width:1px;stroke-linecap:butt;stroke-linejoin:miter;stroke-opacity:1"
       d="m 1180.3114,592.41857 9.6187,-11.11145 c 0,0 -41.8155,10.23659 -63.1077,13.08486 -20.5603,2.75036 -41.3677,3.84524 -62.1098,3.82525 -19.1918,-0.0185 -57.4605,-3.65008 -57.4605,-3.65008 l 3.5673,8.06442 c 0,0 54.7482,3.36096 82.0996,2.19018 18.6192,-0.797 37.1344,-3.45037 55.5585,-6.26145 10.683,-1.62996 25.1027,-5.57408 31.8339,-6.14173 z"
       id="path31090"
       sodipodi:nodetypes="ccaaccaac" /><g
       id="g33671"
       transform="matrix(-1,0,0,1,2171.5625,0.21930726)"
       style="stroke:#ffb3b3;stroke-opacity:1"><g
         id="g33657"
         style="stroke:#ffb3b3;stroke-opacity:1"><path
           style="fill:none;stroke:#ffb3b3;stroke-width:3.00001;stroke-linecap:round;stroke-linejoin:miter;stroke-dasharray:none;stroke-opacity:1"
           d="m 1144.5151,585.99973 c 0,0 -1.7328,-25.67977 -11.0527,-25.68229 -17.035,-0.005 -20.6773,35.96821 -20.2278,46.93136"
           id="path32382"
           sodipodi:nodetypes="cac" /></g><g
         id="g33923"
         transform="translate(-3.2522567,16.695455)"><path
           style="fill:none;stroke:#ffb3b3;stroke-width:1.88976378;stroke-linecap:round;stroke-linejoin:bevel;stroke-opacity:1;stroke-dasharray:none"
           d="m 1112.3968,651.14656 c 0,0 10.1683,-10.06065 12.1853,-16.63823 2.7476,-8.95949 2.4545,-19.40472 -1.0304,-28.10229 -1.5126,-3.77508 -8.0926,-9.11531 -8.0926,-9.11531"
           id="path32800"
           sodipodi:nodetypes="caac" /><path
           style="fill:none;stroke:#ffb3b3;stroke-width:1.88976378;stroke-linecap:round;stroke-linejoin:bevel;stroke-opacity:1;stroke-dasharray:none"
           d="m 1112.4313,603.7896 c 0,0 2.3023,10.81607 2.1242,16.28912 -0.1854,5.69435 -1.07,11.53039 -3.3075,16.76708 -2.3641,5.5329 -10.3798,14.75551 -10.3798,14.75551"
           id="path32802"
           sodipodi:nodetypes="caac" /><path
           style="fill:none;stroke:#ffb3b3;stroke-width:1.88976378;stroke-linecap:round;stroke-linejoin:bevel;stroke-opacity:1;stroke-dasharray:none"
           d="m 1102.5711,615.88303 c 0,0 -7.4929,9.73521 -9.2662,15.48718 -1.8604,6.03483 -1.1194,18.91703 -1.1194,18.91703"
           id="path32804"
           sodipodi:nodetypes="cac" /><path
           style="fill:none;stroke:#ffb3b3;stroke-width:1.88976378;stroke-linecap:round;stroke-linejoin:bevel;stroke-opacity:1;stroke-dasharray:none"
           d="m 1089.3375,616.9645 c 0,0 -6.1879,6.49305 -7.7811,10.57123 -1.3312,3.40818 -1.2568,7.25376 -1.2119,10.91397 0.042,3.3579 1.3576,9.98204 1.3576,9.98204"
           id="path32806"
           sodipodi:nodetypes="caac" /><path
           style="fill:none;stroke:#ffb3b3;stroke-width:1.88976378;stroke-linecap:round;stroke-linejoin:bevel;stroke-opacity:1;stroke-dasharray:none"
           d="m 1073.9881,622.53412 c 0,0 -2.8202,7.61042 -3.1259,11.60602 -0.3058,3.9938 1.3224,11.94321 1.3224,11.94321"
           id="path32808"
           sodipodi:nodetypes="cac" /><path
           style="fill:none;stroke:#ffb3b3;stroke-width:1.88976378;stroke-linecap:round;stroke-linejoin:bevel;stroke-opacity:1;stroke-dasharray:none"
           d="m 1124.8118,600.70368 c 0,0 -4.2154,6.73433 -7.5376,8.59138 -3.2124,1.79575 -10.8781,1.84749 -10.8781,1.84749"
           id="path32810"
           sodipodi:nodetypes="cac" /><path
           style="fill:none;stroke:#ffb3b3;stroke-width:1.88976378;stroke-linecap:round;stroke-linejoin:bevel;stroke-opacity:1;stroke-dasharray:none"
           d="m 1130.26,612.10999 c 0,0 -7.3845,6.61997 -11.7735,8.78585 -3.6987,1.82524 -7.8065,2.90078 -11.9024,3.36564 -4.532,0.51434 -9.1648,0.0592 -13.666,-0.67828 -4.8891,-0.80102 -14.3059,-4.03912 -14.3059,-4.03912"
           id="path32812"
           sodipodi:nodetypes="caaac" /><path
           style="fill:none;stroke:#ffb3b3;stroke-width:1.99999;stroke-linecap:butt;stroke-linejoin:miter;stroke-dasharray:none;stroke-opacity:1"
           d="m 1137.018,626.96922 c -0.5724,-7.32817 -1.9752,-14.95498 -5.661,-21.30824 -3.4207,-5.89674 -7.7448,-14.44844 -14.5458,-14.35369 -8.2028,0.11436 -10.0772,13.47275 -17.0583,17.7948 -8.8943,5.50656 -22.1093,2.38754 -29.9469,9.32395 -6.6065,5.84684 -14.0856,15.89779 -10.9182,24.14419 3.249,8.45873 16.127,8.53398 24.8704,10.8264 8.5144,2.23235 17.6542,4.51793 26.2645,2.69327 9.5666,-2.02732 20.1367,-6.36312 25.4812,-14.57625 2.6561,-4.08193 1.8938,-9.68482 1.5141,-14.54443 z"
           id="path32453"
           sodipodi:nodetypes="aaaaaaaaaa"
           transform="translate(-2e-5)" /><path
           style="fill:none;stroke:#ffb3b3;stroke-width:1.88976378;stroke-linecap:round;stroke-linejoin:bevel;stroke-opacity:1;stroke-dasharray:none"
           d="m 1132.1988,626.24413 c -1.3005,0.37852 -7.7006,3.87813 -11.8006,5.13809 -5.6453,1.7348 -11.5182,2.89034 -17.4104,3.26885 -5.1217,0.32899 -10.2844,-0.19877 -15.3713,-0.88185 -3.6342,-0.48802 -7.3141,-1.03435 -10.7606,-2.28963 -3.1029,-1.13015 -8.7492,-4.65382 -8.7492,-4.65382"
           id="path32814"
           sodipodi:nodetypes="caaaac"
           transform="translate(-2e-5)" /><path
           style="fill:none;stroke:#ffb3b3;stroke-width:1.88976378;stroke-linecap:round;stroke-linejoin:bevel;stroke-opacity:1;stroke-dasharray:none"
           d="m 1124.8975,644.31899 c 0,0 -10.0765,1.91554 -15.1813,2.21739 -5.1875,0.30673 -10.4251,0.20637 -15.584,-0.41966 -6.2692,-0.76074 -12.5853,-1.84979 -18.5127,-4.03452 -3.7615,-1.38645 -10.6057,-5.67896 -10.6057,-5.67896"
           id="path32816"
           sodipodi:nodetypes="caaac" /></g></g><path
       style="fill:none;stroke:#ff7d7d;stroke-width:3;stroke-linecap:round;stroke-linejoin:bevel;stroke-dasharray:none;stroke-opacity:1;marker-start:url(#marker23921-5)"
       d="M 1139.889,648.47482 V 608.52596"
       id="path33927"
       sodipodi:nodetypes="cc" /></g></svg>
