<?xml version="1.0" encoding="UTF-8" standalone="no"?>
<!-- Created with Inkscape (http://www.inkscape.org/) -->

<svg
   width="375.40295mm"
   height="208.04472mm"
   viewBox="0 0 375.40293 208.04472"
   version="1.1"
   id="svg5"
   inkscape:version="1.2.1 (9c6d41e410, 2022-07-14, custom)"
   sodipodi:docname="distinguish.svg"
   xml:space="preserve"
   xmlns:inkscape="http://www.inkscape.org/namespaces/inkscape"
   xmlns:sodipodi="http://sodipodi.sourceforge.net/DTD/sodipodi-0.dtd"
   xmlns="http://www.w3.org/2000/svg"
   xmlns:svg="http://www.w3.org/2000/svg"><sodipodi:namedview
     id="namedview7"
     pagecolor="#000000"
     bordercolor="#666666"
     borderopacity="1.0"
     inkscape:pageshadow="2"
     inkscape:pageopacity="0"
     inkscape:pagecheckerboard="false"
     inkscape:document-units="mm"
     showgrid="false"
     inkscape:zoom="0.76298285"
     inkscape:cx="683.5016"
     inkscape:cy="475.7643"
     inkscape:window-width="1916"
     inkscape:window-height="1037"
     inkscape:window-x="0"
     inkscape:window-y="20"
     inkscape:window-maximized="1"
     inkscape:current-layer="g798604"
     inkscape:showpageshadow="2"
     inkscape:deskcolor="#000000" /><defs
     id="defs2"><marker
       style="overflow:visible"
       id="marker16923"
       refX="0"
       refY="0"
       orient="auto-start-reverse"
       inkscape:stockid="Arrow2"
       markerWidth="5"
       markerHeight="3.6363637"
       viewBox="0 0 7.7 5.6"
       inkscape:isstock="true"
       inkscape:collect="always"
       preserveAspectRatio="xMidYMid"><path
         transform="scale(0.7)"
         d="M -2,-4 9,0 -2,4 c 2,-2.33 2,-5.66 0,-8 z"
         style="fill:context-stroke;fill-rule:evenodd;stroke:none"
         id="path16921" /></marker><marker
       style="overflow:visible"
       id="Arrow2"
       refX="0"
       refY="0"
       orient="auto-start-reverse"
       inkscape:stockid="Arrow2"
       markerWidth="5"
       markerHeight="3.6363637"
       viewBox="0 0 7.7 5.6"
       inkscape:isstock="true"
       inkscape:collect="always"
       preserveAspectRatio="xMidYMid"><path
         transform="scale(0.7)"
         d="M -2,-4 9,0 -2,4 c 2,-2.33 2,-5.66 0,-8 z"
         style="fill:context-stroke;fill-rule:evenodd;stroke:none"
         id="arrow2L" /></marker><marker
       style="overflow:visible"
       id="Arrow2Mstart-1"
       refX="0"
       refY="0"
       orient="80"
       inkscape:stockid="Arrow2Mstart"
       inkscape:isstock="true"
       viewBox="0 0 6.9304588 5.1962256"
       markerWidth="6"
       markerHeight="4.4985986"
       preserveAspectRatio="xMidYMid"><path
         transform="scale(0.6)"
         d="M 8.7185878,4.0337352 -2.2072895,0.01601326 8.7185884,-4.0017078 c -1.7454984,2.3720609 -1.7354408,5.6174519 -6e-7,8.035443 z"
         style="fill:context-stroke;fill-rule:evenodd;stroke:context-stroke;stroke-width:0.625;stroke-linejoin:round"
         id="path752666-1" /></marker><marker
       style="overflow:visible"
       id="Arrow2Mstart-1-6"
       refX="0.68240988"
       refY="0.0041767759"
       orient="115.87501526"
       inkscape:stockid="Arrow2Mstart"
       inkscape:isstock="true"
       viewBox="0 0 6.9304588 5.1962256"
       markerWidth="6"
       markerHeight="4.4985986"
       preserveAspectRatio="xMidYMid"><path
         transform="scale(0.6)"
         d="M 8.7185878,4.0337352 -2.2072895,0.01601326 8.7185884,-4.0017078 c -1.7454984,2.3720609 -1.7354408,5.6174519 -6e-7,8.035443 z"
         style="fill:context-stroke;fill-rule:evenodd;stroke:context-stroke;stroke-width:0.625;stroke-linejoin:round"
         id="path752666-1-2" /></marker><g
       id="id-1382ddda-13d8-44c1-887b-2c417df8020d"
       style="fill:#ff7d7d;fill-opacity:1;stroke-width:0"><symbol
         overflow="visible"
         id="id-2987ecb6-e645-40dc-a4ab-cdce30e95433"
         style="fill:#ff7d7d;fill-opacity:1;stroke-width:0"><path
           style="fill:#ff7d7d;fill-opacity:1;stroke:#ff7d7d;stroke-width:0"
           d=""
           id="id-3b98700b-0855-4a10-80b3-a692d3e7d50b" /></symbol><symbol
         overflow="visible"
         id="id-58cb04d7-1877-44b5-aec1-81ac0bbb04ce"
         style="fill:#ff7d7d;fill-opacity:1;stroke-width:0"><path
           style="fill:#ff7d7d;fill-opacity:1;stroke:#ff7d7d;stroke-width:0"
           d="M 2.5,-6.921875 1.15625,-5.5625 1.328125,-5.390625 2.5,-6.40625 3.640625,-5.390625 3.8125,-5.5625 Z m 0,0"
           id="id-45a14c04-6293-4c36-8b8b-f648b538435f" /></symbol><symbol
         overflow="visible"
         id="id-ed676b78-a4b2-44bf-85bb-687430ab3d99"
         style="fill:#ff7d7d;fill-opacity:1;stroke-width:0"><path
           style="fill:#ff7d7d;fill-opacity:1;stroke:#ff7d7d;stroke-width:0"
           d=""
           id="id-98899169-4099-434d-b7cf-ec48906251fa" /></symbol><symbol
         overflow="visible"
         id="id-82ddcd87-eb09-4052-a770-267e129ec831"
         style="fill:#ff7d7d;fill-opacity:1;stroke-width:0"><path
           style="fill:#ff7d7d;fill-opacity:1;stroke:#ff7d7d;stroke-width:0"
           d="m 5.359375,-5.9375 c -0.140625,0.140625 -0.46875,0.421875 -0.46875,0.59375 0,0.09375 0.09375,0.203125 0.1875,0.203125 0.09375,0 0.140625,-0.078125 0.203125,-0.140625 C 5.390625,-5.421875 5.625,-5.703125 6.0625,-5.921875 6.125,-5.96875 6.234375,-6.015625 6.234375,-6.125 6.234375,-6.234375 6.15625,-6.28125 6.09375,-6.328125 5.875,-6.484375 5.765625,-6.65625 5.6875,-6.890625 5.65625,-6.984375 5.625,-7.125 5.484375,-7.125 c -0.140625,0 -0.203125,0.140625 -0.203125,0.21875 0,0.046875 0.078125,0.359375 0.234375,0.578125 H 2.15625 c -0.15625,0 -0.34375,0 -0.34375,0.203125 0,0.1875 0.1875,0.1875 0.34375,0.1875 z m 0,0"
           id="id-fb2ec67b-5599-4f38-8ad5-637b70218c92" /></symbol><symbol
         overflow="visible"
         id="id-f927e3e3-e837-4cc7-85da-5a0c1301db5a"
         style="fill:#ff7d7d;fill-opacity:1;stroke-width:0"><path
           style="fill:#ff7d7d;fill-opacity:1;stroke:#ff7d7d;stroke-width:0"
           d="m 1.328125,-0.828125 c 0.53125,-0.578125 0.828125,-0.828125 1.1875,-1.140625 0,0 0.609375,-0.53125 0.96875,-0.890625 C 4.4375,-3.78125 4.65625,-4.265625 4.65625,-4.3125 c 0,-0.09375 -0.09375,-0.09375 -0.109375,-0.09375 -0.078125,0 -0.09375,0.015625 -0.15625,0.109375 -0.296875,0.484375 -0.5,0.640625 -0.734375,0.640625 -0.25,0 -0.359375,-0.15625 -0.515625,-0.328125 -0.1875,-0.21875 -0.359375,-0.421875 -0.6875,-0.421875 -0.75,0 -1.203125,0.921875 -1.203125,1.140625 0,0.046875 0.03125,0.109375 0.109375,0.109375 0.09375,0 0.109375,-0.046875 0.140625,-0.109375 0.1875,-0.46875 0.765625,-0.46875 0.84375,-0.46875 0.203125,0 0.390625,0.0625 0.625,0.140625 0.40625,0.15625 0.515625,0.15625 0.765625,0.15625 -0.359375,0.421875 -1.1875,1.140625 -1.375,1.296875 l -0.90625,0.84375 C 0.78125,-0.625 0.421875,-0.0625 0.421875,0.015625 c 0,0.09375 0.109375,0.09375 0.125,0.09375 0.078125,0 0.09375,-0.015625 0.15625,-0.125 0.234375,-0.359375 0.53125,-0.625 0.859375,-0.625 0.21875,0 0.328125,0.09375 0.578125,0.375 0.15625,0.21875 0.34375,0.375 0.625,0.375 1,0 1.578125,-1.265625 1.578125,-1.53125 0,-0.046875 -0.046875,-0.109375 -0.125,-0.109375 -0.09375,0 -0.109375,0.0625 -0.140625,0.140625 C 3.84375,-0.75 3.203125,-0.5625 2.875,-0.5625 c -0.1875,0 -0.375,-0.0625 -0.578125,-0.125 -0.34375,-0.125 -0.5,-0.171875 -0.703125,-0.171875 -0.015625,0 -0.171875,0 -0.265625,0.03125 z m 0,0"
           id="id-fdde69c8-6119-48b4-bde0-82b85acc73a8" /></symbol></g><g
       id="id-e69a1900-e63a-41df-b033-91322fbc874e"
       style="fill:#33aaff;fill-opacity:1;stroke-width:0"><symbol
         overflow="visible"
         id="id-3853542e-b35b-43ca-bdb3-a1686dd7421b"
         style="fill:#33aaff;fill-opacity:1;stroke-width:0"><path
           style="fill:#33aaff;fill-opacity:1;stroke:#33aaff;stroke-width:0"
           d=""
           id="id-0ca73283-5d78-4617-8437-d8f268c000db" /></symbol><symbol
         overflow="visible"
         id="id-f7fa66ab-907d-4510-963e-1eccb344ad6d"
         style="fill:#33aaff;fill-opacity:1;stroke-width:0"><path
           style="fill:#33aaff;fill-opacity:1;stroke:#33aaff;stroke-width:0"
           d="m 5.359375,-5.9375 c -0.140625,0.140625 -0.46875,0.421875 -0.46875,0.59375 0,0.09375 0.09375,0.203125 0.1875,0.203125 0.09375,0 0.140625,-0.078125 0.203125,-0.140625 C 5.390625,-5.421875 5.625,-5.703125 6.0625,-5.921875 6.125,-5.96875 6.234375,-6.015625 6.234375,-6.125 6.234375,-6.234375 6.15625,-6.28125 6.09375,-6.328125 5.875,-6.484375 5.765625,-6.65625 5.6875,-6.890625 5.65625,-6.984375 5.625,-7.125 5.484375,-7.125 c -0.140625,0 -0.203125,0.140625 -0.203125,0.21875 0,0.046875 0.078125,0.359375 0.234375,0.578125 H 2.15625 c -0.15625,0 -0.34375,0 -0.34375,0.203125 0,0.1875 0.1875,0.1875 0.34375,0.1875 z m 0,0"
           id="id-06f2faa5-9274-4229-a0d9-4fe96570d439" /></symbol><symbol
         overflow="visible"
         id="id-0fa9e3b9-5da2-4c5f-bcd0-c53f29e34b3b"
         style="fill:#33aaff;fill-opacity:1;stroke-width:0"><path
           style="fill:#33aaff;fill-opacity:1;stroke:#33aaff;stroke-width:0"
           d="M 3.484375,-0.5625 C 3.59375,-0.15625 3.953125,0.109375 4.375,0.109375 4.71875,0.109375 4.953125,-0.125 5.109375,-0.4375 5.28125,-0.796875 5.40625,-1.40625 5.40625,-1.421875 c 0,-0.109375 -0.078125,-0.109375 -0.109375,-0.109375 -0.109375,0 -0.109375,0.046875 -0.140625,0.1875 -0.140625,0.5625 -0.328125,1.234375 -0.75,1.234375 -0.203125,0 -0.3125,-0.125 -0.3125,-0.453125 0,-0.21875 0.125,-0.6875 0.203125,-1.046875 L 4.578125,-2.6875 C 4.609375,-2.828125 4.703125,-3.203125 4.75,-3.359375 4.796875,-3.59375 4.890625,-3.96875 4.890625,-4.03125 c 0,-0.171875 -0.140625,-0.265625 -0.28125,-0.265625 -0.046875,0 -0.3125,0.015625 -0.390625,0.34375 -0.1875,0.734375 -0.625,2.484375 -0.75,3 -0.015625,0.046875 -0.40625,0.84375 -1.140625,0.84375 -0.515625,0 -0.609375,-0.453125 -0.609375,-0.8125 0,-0.5625 0.28125,-1.34375 0.53125,-2.03125 0.125,-0.3125 0.171875,-0.453125 0.171875,-0.640625 0,-0.4375 -0.3125,-0.8125 -0.8125,-0.8125 -0.953125,0 -1.3125,1.453125 -1.3125,1.53125 0,0.109375 0.09375,0.109375 0.109375,0.109375 0.109375,0 0.109375,-0.03125 0.15625,-0.1875 0.25,-0.859375 0.640625,-1.234375 1.015625,-1.234375 0.09375,0 0.25,0.015625 0.25,0.328125 0,0.234375 -0.109375,0.53125 -0.171875,0.671875 -0.375,1 -0.578125,1.609375 -0.578125,2.09375 0,0.953125 0.6875,1.203125 1.21875,1.203125 0.65625,0 1.015625,-0.453125 1.1875,-0.671875 z m 0,0"
           id="id-2d6aa263-f6ce-4e30-a9d2-5ff97dc61bbc" /></symbol><symbol
         overflow="visible"
         id="id-44a5c21a-ce62-42d0-9540-96b39a3320e2"
         style="fill:#33aaff;fill-opacity:1;stroke-width:0"><path
           style="fill:#33aaff;fill-opacity:1;stroke:#33aaff;stroke-width:0"
           d=""
           id="id-63f427be-cc8c-4d12-8a0e-158477a1435a" /></symbol><symbol
         overflow="visible"
         id="id-e334649a-38ec-495a-bf55-fb465f849296"
         style="fill:#33aaff;fill-opacity:1;stroke-width:0"><path
           style="fill:#33aaff;fill-opacity:1;stroke:#33aaff;stroke-width:0"
           d="M 7.78125,-6.59375 C 7.796875,-6.625 7.828125,-6.6875 7.828125,-6.734375 7.828125,-6.796875 7.8125,-6.8125 7.59375,-6.8125 H 0.703125 c -0.21875,0 -0.234375,0.015625 -0.234375,0.078125 0,0.046875 0.03125,0.109375 0.046875,0.140625 L 3.875,0.140625 c 0.078125,0.125 0.109375,0.1875 0.265625,0.1875 0.171875,0 0.203125,-0.0625 0.28125,-0.1875 z m -6.078125,0.5 h 5.46875 l -2.71875,5.484375 z m 0,0"
           id="id-3f56303d-763f-47a7-a93b-1283c32f79f4" /></symbol></g><g
       id="id-237fd5ef-e2bb-494e-b344-1df375c10e6c"
       style="fill:#000000;fill-opacity:1;stroke-width:0"><symbol
         overflow="visible"
         id="id-0e896e62-ed34-4828-92cc-9fb4160c48cb"
         style="fill:#000000;fill-opacity:1;stroke-width:0"><path
           style="fill:#000000;fill-opacity:1;stroke:#000000;stroke-width:0"
           d=""
           id="id-e2970e73-e2eb-49a9-abed-f5997652b8d7" /></symbol><symbol
         overflow="visible"
         id="id-8cc1181c-a033-4743-825b-aae8fc6245ef"
         style="fill:#000000;fill-opacity:1;stroke-width:0"><path
           style="fill:#000000;fill-opacity:1;stroke:#000000;stroke-width:0"
           d="M 2.5,-6.921875 1.15625,-5.5625 1.328125,-5.390625 2.5,-6.40625 3.640625,-5.390625 3.8125,-5.5625 Z m 0,0"
           id="id-791d7265-a98e-4a6d-b4cf-cd40eec891b6" /></symbol><symbol
         overflow="visible"
         id="id-5684f43f-0247-48f9-939f-1f6cde6e6419"
         style="fill:#000000;fill-opacity:1;stroke-width:0"><path
           style="fill:#000000;fill-opacity:1;stroke:#000000;stroke-width:0"
           d="m 3.296875,2.390625 c 0,-0.03125 0,-0.046875 -0.171875,-0.21875 C 1.890625,0.921875 1.5625,-0.96875 1.5625,-2.5 c 0,-1.734375 0.375,-3.46875 1.609375,-4.703125 0.125,-0.125 0.125,-0.140625 0.125,-0.171875 0,-0.078125 -0.03125,-0.109375 -0.09375,-0.109375 -0.109375,0 -1,0.6875 -1.59375,1.953125 -0.5,1.09375 -0.625,2.203125 -0.625,3.03125 0,0.78125 0.109375,1.984375 0.65625,3.125 C 2.25,1.84375 3.09375,2.5 3.203125,2.5 c 0.0625,0 0.09375,-0.03125 0.09375,-0.109375 z m 0,0"
           id="id-71107169-11d7-4563-9880-4531fdbe231d" /></symbol><symbol
         overflow="visible"
         id="id-eb904d9f-bd20-4da5-a607-494a2d1d1a72"
         style="fill:#000000;fill-opacity:1;stroke-width:0"><path
           style="fill:#000000;fill-opacity:1;stroke:#000000;stroke-width:0"
           d="m 2.875,-2.5 c 0,-0.765625 -0.109375,-1.96875 -0.65625,-3.109375 -0.59375,-1.21875 -1.453125,-1.875 -1.546875,-1.875 -0.0625,0 -0.109375,0.046875 -0.109375,0.109375 0,0.03125 0,0.046875 0.1875,0.234375 0.984375,0.984375 1.546875,2.5625 1.546875,4.640625 0,1.71875 -0.359375,3.46875 -1.59375,4.71875 C 0.5625,2.34375 0.5625,2.359375 0.5625,2.390625 0.5625,2.453125 0.609375,2.5 0.671875,2.5 0.765625,2.5 1.671875,1.8125 2.25,0.546875 2.765625,-0.546875 2.875,-1.65625 2.875,-2.5 Z m 0,0"
           id="id-73eb122b-3c69-40ca-b425-b70d5a1cbf2c" /></symbol><symbol
         overflow="visible"
         id="id-85572e59-2761-4d90-a6ae-0a4d08a4cccd"
         style="fill:#000000;fill-opacity:1;stroke-width:0"><path
           style="fill:#000000;fill-opacity:1;stroke:#000000;stroke-width:0"
           d="m 6.84375,-3.265625 c 0.15625,0 0.34375,0 0.34375,-0.1875 C 7.1875,-3.65625 7,-3.65625 6.859375,-3.65625 h -5.96875 c -0.140625,0 -0.328125,0 -0.328125,0.203125 0,0.1875 0.1875,0.1875 0.328125,0.1875 z m 0.015625,1.9375 c 0.140625,0 0.328125,0 0.328125,-0.203125 0,-0.1875 -0.1875,-0.1875 -0.34375,-0.1875 H 0.890625 c -0.140625,0 -0.328125,0 -0.328125,0.1875 0,0.203125 0.1875,0.203125 0.328125,0.203125 z m 0,0"
           id="id-d610bd68-e9bf-4ba8-b9df-6486125aaa15" /></symbol><symbol
         overflow="visible"
         id="id-28919ab6-563f-4d36-acb4-8401364c3229"
         style="fill:#000000;fill-opacity:1;stroke-width:0"><path
           style="fill:#000000;fill-opacity:1;stroke:#000000;stroke-width:0"
           d="m 2.34375,-2.484375 c 0,-1.25 0.96875,-1.96875 1.3125,-2.21875 0.265625,-0.203125 0.484375,-0.5625 0.484375,-0.984375 0,-0.578125 -0.40625,-1.34375 -1.890625,-1.34375 -1.078125,0 -1.6875,0.6875 -1.6875,1.328125 0,0.34375 0.21875,0.484375 0.453125,0.484375 0.28125,0 0.453125,-0.203125 0.453125,-0.46875 0,-0.4375 -0.40625,-0.4375 -0.546875,-0.4375 0.296875,-0.53125 0.875,-0.6875 1.296875,-0.6875 1.09375,0 1.09375,0.6875 1.09375,1.078125 0,0.578125 -0.15625,0.765625 -0.34375,0.9375 -0.65625,0.71875 -0.875,1.640625 -0.875,2.25 v 0.4375 c 0,0.1875 0,0.25 0.125,0.25 0.125,0 0.125,-0.09375 0.125,-0.28125 z M 2.734375,-0.53125 C 2.734375,-0.8125 2.5,-1.0625 2.21875,-1.0625 c -0.296875,0 -0.53125,0.25 -0.53125,0.53125 C 1.6875,-0.234375 1.921875,0 2.21875,0 2.5,0 2.734375,-0.234375 2.734375,-0.53125 Z m 0,0"
           id="id-c85e584b-e893-4cbf-9b28-f2340f04a153" /></symbol><symbol
         overflow="visible"
         id="id-c346357e-2fc7-44ce-b056-26e91474a902"
         style="fill:#000000;fill-opacity:1;stroke-width:0"><path
           style="fill:#000000;fill-opacity:1;stroke:#000000;stroke-width:0"
           d=""
           id="id-18966f70-6bad-4616-ab63-6f54f2944a33" /></symbol><symbol
         overflow="visible"
         id="id-6014f572-9378-46ed-8706-b354d6a65cb2"
         style="fill:#000000;fill-opacity:1;stroke-width:0"><path
           style="fill:#000000;fill-opacity:1;stroke:#000000;stroke-width:0"
           d="m 5.359375,-5.9375 c -0.140625,0.140625 -0.46875,0.421875 -0.46875,0.59375 0,0.09375 0.09375,0.203125 0.1875,0.203125 0.09375,0 0.140625,-0.078125 0.203125,-0.140625 C 5.390625,-5.421875 5.625,-5.703125 6.0625,-5.921875 6.125,-5.96875 6.234375,-6.015625 6.234375,-6.125 6.234375,-6.234375 6.15625,-6.28125 6.09375,-6.328125 5.875,-6.484375 5.765625,-6.65625 5.6875,-6.890625 5.65625,-6.984375 5.625,-7.125 5.484375,-7.125 c -0.140625,0 -0.203125,0.140625 -0.203125,0.21875 0,0.046875 0.078125,0.359375 0.234375,0.578125 H 2.15625 c -0.15625,0 -0.34375,0 -0.34375,0.203125 0,0.1875 0.1875,0.1875 0.34375,0.1875 z m 0,0"
           id="id-cdb9ccd6-5069-47f5-9d1a-0f8a30e52abb" /></symbol><symbol
         overflow="visible"
         id="id-9a2c00b3-a80a-48c6-b98d-881b4b446621"
         style="fill:#000000;fill-opacity:1;stroke-width:0"><path
           style="fill:#000000;fill-opacity:1;stroke:#000000;stroke-width:0"
           d="M 0.453125,1.21875 C 0.375,1.5625 0.34375,1.625 -0.09375,1.625 c -0.109375,0 -0.21875,0 -0.21875,0.1875 0,0.078125 0.046875,0.125 0.125,0.125 0.265625,0 0.5625,-0.03125 0.828125,-0.03125 0.34375,0 0.671875,0.03125 1,0.03125 0.046875,0 0.171875,0 0.171875,-0.203125 C 1.8125,1.625 1.71875,1.625 1.578125,1.625 c -0.5,0 -0.5,-0.0625 -0.5,-0.15625 0,-0.125 0.421875,-1.75 0.484375,-2 0.125,0.296875 0.40625,0.640625 0.921875,0.640625 1.15625,0 2.40625,-1.453125 2.40625,-2.921875 0,-0.9375 -0.578125,-1.59375 -1.328125,-1.59375 -0.5,0 -0.984375,0.359375 -1.3125,0.75 -0.09375,-0.546875 -0.53125,-0.75 -0.890625,-0.75 -0.46875,0 -0.65625,0.390625 -0.734375,0.5625 C 0.4375,-3.5 0.3125,-2.90625 0.3125,-2.875 c 0,0.109375 0.09375,0.109375 0.109375,0.109375 0.109375,0 0.109375,-0.015625 0.171875,-0.234375 0.171875,-0.703125 0.375,-1.1875 0.734375,-1.1875 0.171875,0 0.3125,0.078125 0.3125,0.453125 0,0.234375 -0.03125,0.34375 -0.078125,0.515625 z m 1.75,-4.328125 C 2.265625,-3.375 2.546875,-3.65625 2.71875,-3.8125 c 0.359375,-0.296875 0.640625,-0.375 0.8125,-0.375 0.390625,0 0.640625,0.34375 0.640625,0.9375 0,0.59375 -0.328125,1.734375 -0.515625,2.109375 -0.34375,0.703125 -0.8125,1.03125 -1.1875,1.03125 C 1.8125,-0.109375 1.6875,-0.9375 1.6875,-1 c 0,-0.015625 0,-0.03125 0.03125,-0.15625 z m 0,0"
           id="id-6950ad6f-c962-42e3-9602-686c624336be" /></symbol><symbol
         overflow="visible"
         id="id-011455c5-86ee-42cc-b6cf-fc9166ea59ca"
         style="fill:#000000;fill-opacity:1;stroke-width:0"><path
           style="fill:#000000;fill-opacity:1;stroke:#000000;stroke-width:0"
           d="m 2.046875,-3.984375 h 0.9375 c 0.203125,0 0.3125,0 0.3125,-0.203125 0,-0.109375 -0.109375,-0.109375 -0.28125,-0.109375 h -0.875 C 2.5,-5.71875 2.546875,-5.90625 2.546875,-5.96875 c 0,-0.171875 -0.125,-0.265625 -0.296875,-0.265625 -0.03125,0 -0.3125,0 -0.390625,0.359375 L 1.46875,-4.296875 h -0.9375 c -0.203125,0 -0.296875,0 -0.296875,0.1875 0,0.125 0.078125,0.125 0.28125,0.125 h 0.875 C 0.671875,-1.15625 0.625,-0.984375 0.625,-0.8125 0.625,-0.265625 1,0.109375 1.546875,0.109375 2.5625,0.109375 3.125,-1.34375 3.125,-1.421875 3.125,-1.53125 3.046875,-1.53125 3.015625,-1.53125 2.921875,-1.53125 2.90625,-1.5 2.859375,-1.390625 2.4375,-0.34375 1.90625,-0.109375 1.5625,-0.109375 c -0.203125,0 -0.3125,-0.125 -0.3125,-0.453125 0,-0.25 0.03125,-0.3125 0.0625,-0.484375 z m 0,0"
           id="id-f95d97aa-5511-4632-8d67-88f3dfb91a7c" /></symbol></g><marker
       style="overflow:visible"
       id="Arrow2Mstart-1-3"
       refX="0"
       refY="0"
       orient="auto"
       inkscape:stockid="Arrow2Mstart"
       inkscape:isstock="true"
       viewBox="0 0 6.9304588 5.1962256"
       markerWidth="5"
       markerHeight="3.7488322"
       preserveAspectRatio="xMidYMid"><path
         transform="scale(0.6)"
         d="M 8.7185878,4.0337352 -2.2072895,0.01601326 8.7185884,-4.0017078 c -1.7454984,2.3720609 -1.7354408,5.6174519 -6e-7,8.035443 z"
         style="fill:context-stroke;fill-rule:evenodd;stroke:context-stroke;stroke-width:0.625;stroke-linejoin:round"
         id="path752666-1-6" /></marker><marker
       style="overflow:visible"
       id="Arrow2Mstart-1-3-6"
       refX="0"
       refY="0"
       orient="auto"
       inkscape:stockid="Arrow2Mstart"
       inkscape:isstock="true"
       viewBox="0 0 6.9304588 5.1962256"
       markerWidth="6.9304585"
       markerHeight="5.1962256"
       preserveAspectRatio="xMidYMid"><path
         transform="scale(0.6)"
         d="M 8.7185878,4.0337352 -2.2072895,0.01601326 8.7185884,-4.0017078 c -1.7454984,2.3720609 -1.7354408,5.6174519 -6e-7,8.035443 z"
         style="fill:context-stroke;fill-rule:evenodd;stroke:context-stroke;stroke-width:0.625;stroke-linejoin:round"
         id="path752666-1-6-2" /></marker><marker
       style="overflow:visible"
       id="Arrow2Mstart-1-6-2"
       refX="3.7903733"
       refY="-0.039309923"
       orient="-65.89431"
       inkscape:stockid="Arrow2Mstart"
       inkscape:isstock="true"
       viewBox="0 0 6.9304588 5.1962256"
       markerWidth="6"
       markerHeight="4.4985986"
       preserveAspectRatio="xMidYMid"><path
         transform="scale(0.6)"
         d="M 8.7185878,4.0337352 -2.2072895,0.01601326 8.7185884,-4.0017078 c -1.7454984,2.3720609 -1.7354408,5.6174519 -6e-7,8.035443 z"
         style="fill:context-stroke;fill-rule:evenodd;stroke:context-stroke;stroke-width:0.625;stroke-linejoin:round"
         id="path752666-1-2-7" /></marker><marker
       style="overflow:visible"
       id="Arrow2Mstart-1-3-6-6"
       refX="0"
       refY="0"
       orient="auto"
       inkscape:stockid="Arrow2Mstart"
       inkscape:isstock="true"
       viewBox="0 0 6.9304588 5.1962256"
       markerWidth="6.9304585"
       markerHeight="5.1962256"
       preserveAspectRatio="xMidYMid"><path
         transform="scale(0.6)"
         d="M 8.7185878,4.0337352 -2.2072895,0.01601326 8.7185884,-4.0017078 c -1.7454984,2.3720609 -1.7354408,5.6174519 -6e-7,8.035443 z"
         style="fill:context-stroke;fill-rule:evenodd;stroke:context-stroke;stroke-width:0.625;stroke-linejoin:round"
         id="path752666-1-6-2-2" /></marker><marker
       style="overflow:visible"
       id="Arrow2Mstart-1-6-3"
       refX="2.6300499"
       refY="-0.097491309"
       orient="129.18685913"
       inkscape:stockid="Arrow2Mstart"
       inkscape:isstock="true"
       viewBox="0 0 6.9304588 5.1962256"
       markerWidth="3.9999998"
       markerHeight="2.9990656"
       preserveAspectRatio="xMidYMid"><path
         transform="scale(0.6)"
         d="M 8.7185878,4.0337352 -2.2072895,0.01601326 8.7185884,-4.0017078 c -1.7454984,2.3720609 -1.7354408,5.6174519 -6e-7,8.035443 z"
         style="fill:context-stroke;fill-rule:evenodd;stroke:context-stroke;stroke-width:0.625;stroke-linejoin:round"
         id="path752666-1-2-6" /></marker><marker
       style="overflow:visible"
       id="marker9741-47"
       refX="2.2179856"
       refY="0.040954135"
       orient="auto"
       inkscape:stockid="Arrow2Mstart"
       inkscape:isstock="true"
       viewBox="0 0 6.9304588 5.1962256"
       markerWidth="5"
       markerHeight="3.7488322"
       preserveAspectRatio="xMidYMid"><path
         transform="scale(0.6)"
         d="M 8.7185878,4.0337352 -2.2072895,0.01601326 8.7185884,-4.0017078 c -1.7454984,2.3720609 -1.7354408,5.6174519 -6e-7,8.035443 z"
         style="fill:context-stroke;fill-rule:evenodd;stroke:context-stroke;stroke-width:0.625;stroke-linejoin:round"
         id="path9739-75" /></marker><marker
       style="overflow:visible"
       id="marker13703"
       refX="2.2179856"
       refY="0.040954135"
       orient="auto"
       inkscape:stockid="Arrow2Mstart"
       inkscape:isstock="true"
       viewBox="0 0 6.9304588 5.1962256"
       markerWidth="5"
       markerHeight="3.7488322"
       preserveAspectRatio="xMidYMid"><path
         transform="scale(0.6)"
         d="M 8.7185878,4.0337352 -2.2072895,0.01601326 8.7185884,-4.0017078 c -1.7454984,2.3720609 -1.7354408,5.6174519 -6e-7,8.035443 z"
         style="fill:context-stroke;fill-rule:evenodd;stroke:context-stroke;stroke-width:0.625;stroke-linejoin:round"
         id="path13701" /></marker><marker
       style="overflow:visible"
       id="Arrow2-3-7"
       refX="0"
       refY="0"
       orient="auto-start-reverse"
       inkscape:stockid="Arrow2"
       markerWidth="5"
       markerHeight="3.6363637"
       viewBox="0 0 7.7 5.6"
       inkscape:isstock="true"
       inkscape:collect="always"
       preserveAspectRatio="xMidYMid"><path
         transform="scale(0.7)"
         d="M -2,-4 9,0 -2,4 c 2,-2.33 2,-5.66 0,-8 z"
         style="fill:context-stroke;fill-rule:evenodd;stroke:none"
         id="arrow2L-6-5" /></marker><marker
       style="overflow:visible"
       id="marker3738"
       refX="0"
       refY="0"
       orient="auto-start-reverse"
       inkscape:stockid="Arrow2"
       markerWidth="5"
       markerHeight="3.6363637"
       viewBox="0 0 7.7 5.6"
       inkscape:isstock="true"
       inkscape:collect="always"
       preserveAspectRatio="xMidYMid"><path
         transform="scale(0.7)"
         d="M -2,-4 9,0 -2,4 c 2,-2.33 2,-5.66 0,-8 z"
         style="fill:context-stroke;fill-rule:evenodd;stroke:none"
         id="path3736" /></marker><marker
       style="overflow:visible"
       id="marker3738-3"
       refX="0"
       refY="0"
       orient="auto-start-reverse"
       inkscape:stockid="Arrow2"
       markerWidth="5"
       markerHeight="3.6363637"
       viewBox="0 0 7.7 5.6"
       inkscape:isstock="true"
       inkscape:collect="always"
       preserveAspectRatio="xMidYMid"><path
         transform="scale(0.7)"
         d="M -2,-4 9,0 -2,4 c 2,-2.33 2,-5.66 0,-8 z"
         style="fill:context-stroke;fill-rule:evenodd;stroke:none"
         id="path3736-6" /></marker><marker
       style="overflow:visible"
       id="Arrow2-3-7-7"
       refX="0"
       refY="0"
       orient="auto-start-reverse"
       inkscape:stockid="Arrow2"
       markerWidth="5"
       markerHeight="3.6363637"
       viewBox="0 0 7.7 5.6"
       inkscape:isstock="true"
       inkscape:collect="always"
       preserveAspectRatio="xMidYMid"><path
         transform="scale(0.7)"
         d="M -2,-4 9,0 -2,4 c 2,-2.33 2,-5.66 0,-8 z"
         style="fill:context-stroke;fill-rule:evenodd;stroke:none"
         id="arrow2L-6-5-5" /></marker><marker
       style="overflow:visible"
       id="Arrow2-35"
       refX="0"
       refY="0"
       orient="auto-start-reverse"
       inkscape:stockid="Arrow2"
       markerWidth="5"
       markerHeight="3.6363637"
       viewBox="0 0 7.7 5.6"
       inkscape:isstock="true"
       inkscape:collect="always"
       preserveAspectRatio="xMidYMid"><path
         transform="scale(0.7)"
         d="M -2,-4 9,0 -2,4 c 2,-2.33 2,-5.66 0,-8 z"
         style="fill:context-stroke;fill-rule:evenodd;stroke:none"
         id="arrow2L-62" /></marker><marker
       style="overflow:visible"
       id="marker3568"
       refX="0"
       refY="0"
       orient="auto-start-reverse"
       inkscape:stockid="Arrow2"
       markerWidth="5"
       markerHeight="3.6363637"
       viewBox="0 0 7.7 5.6"
       inkscape:isstock="true"
       inkscape:collect="always"
       preserveAspectRatio="xMidYMid"><path
         transform="scale(0.7)"
         d="M -2,-4 9,0 -2,4 c 2,-2.33 2,-5.66 0,-8 z"
         style="fill:context-stroke;fill-rule:evenodd;stroke:none"
         id="path3566" /></marker><marker
       style="overflow:visible"
       id="marker3820"
       refX="0"
       refY="0"
       orient="auto-start-reverse"
       inkscape:stockid="Arrow2"
       markerWidth="5"
       markerHeight="3.6363637"
       viewBox="0 0 7.7 5.6"
       inkscape:isstock="true"
       inkscape:collect="always"
       preserveAspectRatio="xMidYMid"><path
         transform="scale(0.7)"
         d="M -2,-4 9,0 -2,4 c 2,-2.33 2,-5.66 0,-8 z"
         style="fill:context-stroke;fill-rule:evenodd;stroke:none"
         id="path3818" /></marker><marker
       style="overflow:visible"
       id="Arrow2-3-7-7-7"
       refX="0"
       refY="0"
       orient="auto-start-reverse"
       inkscape:stockid="Arrow2"
       markerWidth="5"
       markerHeight="3.6363637"
       viewBox="0 0 7.7 5.6"
       inkscape:isstock="true"
       inkscape:collect="always"
       preserveAspectRatio="xMidYMid"><path
         transform="scale(0.7)"
         d="M -2,-4 9,0 -2,4 c 2,-2.33 2,-5.66 0,-8 z"
         style="fill:context-stroke;fill-rule:evenodd;stroke:none"
         id="arrow2L-6-5-5-5" /></marker></defs><g
     inkscape:label="Layer 1"
     id="layer1"
     transform="translate(37.444583,26.567267)"
     inkscape:groupmode="layer"><g
       id="g798604"
       transform="matrix(0.82290395,0,0,0.82264699,-198.70256,-251.54499)"
       style="stroke-width:1.00007"
       inkscape:label="scheme"><path
         style="fill:none;stroke:#ffffff;stroke-width:1.2154;stroke-linecap:round;stroke-linejoin:bevel;stroke-dasharray:3.6462, 3.6462;stroke-dashoffset:0;stroke-opacity:1"
         d="m 455.80966,339.84646 -0.45626,93.85856"
         id="path18717" /><g
         id="g5808"
         style="opacity:0.75;stroke-width:1.04425;stroke-dasharray:none"
         transform="matrix(1.7458372,0,0,1.7458475,-746.64324,-414.33284)"><path
           id="path1302"
           style="opacity:0.25;fill:none;stroke:#80aaff;stroke-width:1.04425;stroke-linecap:round;stroke-linejoin:bevel;stroke-dasharray:none;stroke-opacity:1;marker-mid:url(#marker3568);marker-end:url(#marker3820)"
           d="m 592.23418,466.85385 c 6.43495,0 12.14744,3.09424 15.73163,7.87646 2.46028,3.28262 3.91776,7.36058 3.91776,11.77906 -10e-6,5.86783 -2.57047,11.13511 -6.64646,14.73659 -3.46457,3.06123 -8.01687,4.91894 -13.00293,4.91893 -4.76412,-1e-5 -9.13223,-1.69601 -12.53387,-4.51737 -4.34686,-3.60533 -7.1155,-9.04832 -7.11551,-15.13815 0,-4.49411 1.5078,-8.63594 4.04497,-11.94693 3.59132,-4.68663 9.24507,-7.70858 15.60441,-7.70859 z"
           sodipodi:nodetypes="cscssscsc" /><g
           id="g2635"
           style="stroke-width:1.04425;stroke-dasharray:none"><path
             id="ellipse4789"
             style="opacity:1;fill:none;stroke:#80aaff;stroke-width:1.04425;stroke-linecap:round;stroke-linejoin:bevel;stroke-dasharray:none;stroke-opacity:1;marker-mid:url(#marker3568);marker-end:url(#marker3820)"
             d="m 592.23356,451.45043 c 9.48895,-1.2e-4 18.09745,3.76953 24.40957,9.89301 6.56808,6.37179 10.64976,15.2922 10.64973,25.16593 3e-5,11.53842 -5.57398,21.77495 -14.17619,28.16375 -5.8332,4.33229 -13.05885,6.89529 -20.88311,6.89519 -8.23985,-4e-5 -15.81575,-2.84268 -21.80057,-7.60077 -8.07863,-6.42272 -13.25813,-16.33558 -13.2581,-27.45817 -2e-5,-7.99008 2.67285,-15.35589 7.17323,-21.25204 6.40544,-8.39204 16.51309,-13.80684 27.88544,-13.8069 z"
             sodipodi:nodetypes="cscscscsc" /><path
             id="circle4933"
             style="opacity:1;fill:none;stroke:#80aaff;stroke-width:1.04425;stroke-linecap:round;stroke-linejoin:bevel;stroke-dasharray:none;stroke-opacity:1;marker-mid:url(#marker3568);marker-end:url(#marker3820)"
             d="m 592.23354,436.08972 c 12.30192,-4e-5 23.57481,4.4057 32.32689,11.72543 11.05872,9.24886 18.09279,23.1501 18.09272,38.69422 -1.3e-4,16.43705 -7.86575,31.03696 -20.03832,40.24126 -8.44882,6.38859 -18.97255,10.1778 -30.38129,10.17776 -14.11596,-1.3e-4 -26.87701,-5.8012 -36.02928,-15.14935 -8.90175,-9.09227 -14.38958,-21.54009 -14.38969,-35.26967 -5e-5,-11.16314 3.62777,-21.47896 9.76876,-29.83278 9.17737,-12.48428 23.96756,-20.58672 40.65021,-20.58687 z"
             sodipodi:nodetypes="cscscscsc" /></g></g><g
         id="g10511"
         transform="matrix(-1.045186,-0.65395435,-0.65789229,1.045556,939.47534,32.672329)"
         style="stroke-width:0.810356"
         inkscape:label="flow" /><path
         style="fill:none;stroke:#80aaff;stroke-width:3.6462;stroke-linecap:round;stroke-linejoin:bevel;stroke-dasharray:none;stroke-opacity:1;marker-start:url(#marker3738)"
         id="path1973"
         sodipodi:type="arc"
         sodipodi:cx="289.43423"
         sodipodi:cy="433.61319"
         sodipodi:rx="111.82926"
         sodipodi:ry="111.82926"
         sodipodi:start="4.8911475"
         sodipodi:end="5.2580513"
         sodipodi:arc-type="arc"
         d="m 309.31837,323.56591 a 111.82926,111.82926 0 0 1 38.1535,14.45744"
         sodipodi:open="true" /><path
         style="fill:none;stroke:#80aaff;stroke-width:3.6462;stroke-linecap:round;stroke-linejoin:bevel;stroke-dasharray:none;stroke-opacity:1;marker-end:url(#Arrow2-3-7)"
         d="M 289.01071,431.92059 287.41904,301.8512"
         id="path1919"
         sodipodi:nodetypes="cc"
         inkscape:transform-center-x="0.38436139"
         inkscape:transform-center-y="-55.407902" /><text
         xml:space="preserve"
         style="font-size:12.863px;line-height:1.25;font-family:'Source Code Pro';-inkscape-font-specification:'Source Code Pro';text-align:start;letter-spacing:0px;word-spacing:0px;text-anchor:start;fill:#80aaff;fill-opacity:1;stroke-width:0.321597"
         x="281.00427"
         y="283.05911"
         id="text4046"
         transform="scale(0.99984392,1.0001561)"><tspan
           sodipodi:role="line"
           id="tspan4044"
           style="text-align:start;text-anchor:start;fill:#80aaff;fill-opacity:1;stroke-width:0.321597"
           x="281.00427"
           y="283.05911">$\Direction$</tspan></text><path
         style="fill:none;stroke:#80aaff;stroke-width:3.6462;stroke-linecap:round;stroke-linejoin:bevel;stroke-dasharray:none;stroke-opacity:1;marker-end:url(#marker16923)"
         id="path16726"
         sodipodi:type="arc"
         sodipodi:cx="289.43423"
         sodipodi:cy="433.61319"
         sodipodi:rx="111.82926"
         sodipodi:ry="111.82926"
         sodipodi:start="5.2770863"
         sodipodi:end="5.6495673"
         sodipodi:arc-type="arc"
         d="m 349.2808,339.14535 a 111.82926,111.82926 0 0 1 30.2756,28.25772"
         sodipodi:open="true" /><text
         xml:space="preserve"
         style="font-size:12.863px;line-height:1.25;font-family:'Source Code Pro';-inkscape-font-specification:'Source Code Pro';text-align:start;letter-spacing:0px;word-spacing:0px;text-anchor:start;fill:#80aaff;fill-opacity:1;stroke-width:0.321597"
         x="371.46182"
         y="349.45782"
         id="text4046-6"
         transform="scale(0.99984392,1.0001561)"><tspan
           sodipodi:role="line"
           id="tspan4044-2"
           style="text-align:start;text-anchor:start;fill:#80aaff;fill-opacity:1;stroke-width:0.321597"
           x="371.46182"
           y="349.45782">$\FlowVorticityScalar$</tspan></text><path
         style="fill:none;stroke:#ffffff;stroke-width:3.6462;stroke-linecap:round;stroke-linejoin:bevel;stroke-dasharray:none;stroke-opacity:1;marker-end:url(#Arrow2)"
         d="M 288.34095,432.53806 358.1199,323.32423"
         id="path2002"
         sodipodi:nodetypes="cc" /><path
         style="fill:none;stroke:#ff7d7d;stroke-width:3.6462;stroke-linecap:round;stroke-linejoin:bevel;stroke-dasharray:none;stroke-opacity:1;marker-start:url(#marker3738-3)"
         id="path1973-7"
         sodipodi:type="arc"
         sodipodi:cx="566.99481"
         sodipodi:cy="433.46716"
         sodipodi:rx="105.77057"
         sodipodi:ry="105.77057"
         sodipodi:start="4.0636544"
         sodipodi:end="4.7011488"
         sodipodi:arc-type="arc"
         d="m 503.0905,349.18399 a 105.77057,105.77057 0 0 1 62.71546,-21.48071"
         sodipodi:open="true" /><path
         style="fill:none;stroke:#ff7d7d;stroke-width:3.6462;stroke-linecap:round;stroke-linejoin:bevel;stroke-dasharray:none;stroke-opacity:1;marker-end:url(#Arrow2-3-7-7)"
         d="M 564.70835,432.32434 465.50121,348.22693"
         id="path1919-9"
         sodipodi:nodetypes="cc"
         inkscape:transform-center-x="42.081451"
         inkscape:transform-center-y="-36.046281" /><text
         xml:space="preserve"
         style="font-size:12.863px;line-height:1.25;font-family:'Source Code Pro';-inkscape-font-specification:'Source Code Pro';text-align:center;letter-spacing:0px;word-spacing:0px;text-anchor:middle;fill:#ff7d7d;fill-opacity:1;stroke-width:0.321597"
         x="454.04309"
         y="329.12033"
         id="text4046-2"
         transform="scale(0.99984392,1.0001561)"><tspan
           sodipodi:role="line"
           id="tspan4044-3"
           style="text-align:center;text-anchor:middle;fill:#ff7d7d;fill-opacity:1;stroke-width:0.321597"
           x="454.04309"
           y="329.12033">$\ControlDirectionOpt$</tspan></text><text
         xml:space="preserve"
         style="font-size:12.863px;line-height:1.25;font-family:'Source Code Pro';-inkscape-font-specification:'Source Code Pro';text-align:start;letter-spacing:0px;word-spacing:0px;text-anchor:start;fill:#ffffff;fill-opacity:1;stroke-width:0.321597"
         x="339.15778"
         y="455.34348"
         id="text4046-3"
         transform="scale(0.99984392,1.0001561)"><tspan
           sodipodi:role="line"
           id="tspan4044-5"
           style="text-align:start;text-anchor:start;fill:#ffffff;fill-opacity:1;stroke-width:0.321597"
           x="339.15778"
           y="455.34348">$\SwimmingDirection_x &gt; 0$</tspan></text><path
         style="fill:none;stroke:#ffffff;stroke-width:3.6462;stroke-linecap:round;stroke-linejoin:bevel;stroke-dasharray:none;stroke-opacity:1;marker-end:url(#Arrow2-35)"
         d="m 565.82901,433.09069 0.37925,-129.61351"
         id="path2002-2"
         sodipodi:nodetypes="cc"
         inkscape:transform-center-x="0.9834666"
         inkscape:transform-center-y="-53.544772" /><path
         style="fill:none;stroke:#ffffff;stroke-width:3.6462;stroke-linecap:round;stroke-linejoin:bevel;stroke-dasharray:7.29239, 7.29239;stroke-dashoffset:0;stroke-opacity:1;marker-end:url(#Arrow2-3-7-7-7)"
         d="m 563.87363,433.63471 -95.14894,0.0729"
         id="path17656"
         sodipodi:nodetypes="cc"
         inkscape:transform-center-x="55.409121"
         inkscape:transform-center-y="0.10986309" /><ellipse
         style="fill:#ff7d7d;fill-opacity:1;stroke-width:3.6462;stroke-linecap:round;stroke-linejoin:bevel"
         id="ellipse3227-7"
         cx="-42.167458"
         cy="711.16876"
         rx="42.541428"
         ry="42.536461"
         transform="matrix(0.55939544,-0.82890093,0.82873885,0.55963552,0,0)" /><path
         style="fill:none;stroke:#ffffff;stroke-width:3.6462;stroke-linecap:round;stroke-linejoin:bevel;stroke-dasharray:7.29239, 7.29239;stroke-dashoffset:0;stroke-opacity:1;marker-end:url(#Arrow2-3-7-7-7)"
         d="m 289.12379,433.63471 64.15599,0.0729"
         id="path19277"
         sodipodi:nodetypes="cc"
         inkscape:transform-center-x="-55.40912"
         inkscape:transform-center-y="0.10986309" /><g
         id="g3105"
         style="opacity:0.75;stroke-width:1.04425;stroke-dasharray:none"
         transform="matrix(1.7458372,0,0,1.7458475,-473.12751,-414.33284)"><path
           id="path3097"
           style="opacity:0.25;fill:none;stroke:#80aaff;stroke-width:1.04425;stroke-linecap:round;stroke-linejoin:bevel;stroke-dasharray:none;stroke-opacity:1;marker-mid:url(#marker3568);marker-end:url(#marker3820)"
           d="m 592.23418,466.85385 c 6.43495,0 12.14744,3.09424 15.73163,7.87646 2.46028,3.28262 3.91776,7.36058 3.91776,11.77906 -10e-6,5.86783 -2.57047,11.13511 -6.64646,14.73659 -3.46457,3.06123 -8.01687,4.91894 -13.00293,4.91893 -4.76412,-1e-5 -9.13223,-1.69601 -12.53387,-4.51737 -4.34686,-3.60533 -7.1155,-9.04832 -7.11551,-15.13815 0,-4.49411 1.5078,-8.63594 4.04497,-11.94693 3.59132,-4.68663 9.24507,-7.70858 15.60441,-7.70859 z"
           sodipodi:nodetypes="cscssscsc" /><g
           id="g3103"
           style="stroke-width:1.04425;stroke-dasharray:none"><path
             id="path3099"
             style="opacity:1;fill:none;stroke:#80aaff;stroke-width:1.04425;stroke-linecap:round;stroke-linejoin:bevel;stroke-dasharray:none;stroke-opacity:1;marker-mid:url(#marker3568);marker-end:url(#marker3820)"
             d="m 592.23356,451.45043 c 9.48895,-1.2e-4 18.09745,3.76953 24.40957,9.89301 6.56808,6.37179 10.64976,15.2922 10.64973,25.16593 3e-5,11.53842 -5.57398,21.77495 -14.17619,28.16375 -5.8332,4.33229 -13.05885,6.89529 -20.88311,6.89519 -8.23985,-4e-5 -15.81575,-2.84268 -21.80057,-7.60077 -8.07863,-6.42272 -13.25813,-16.33558 -13.2581,-27.45817 -2e-5,-7.99008 2.67285,-15.35589 7.17323,-21.25204 6.40544,-8.39204 16.51309,-13.80684 27.88544,-13.8069 z"
             sodipodi:nodetypes="cscscscsc" /><path
             id="path3101"
             style="opacity:1;fill:none;stroke:#80aaff;stroke-width:1.04425;stroke-linecap:round;stroke-linejoin:bevel;stroke-dasharray:none;stroke-opacity:1;marker-mid:url(#marker3568);marker-end:url(#marker3820)"
             d="m 592.23354,436.08972 c 12.30192,-4e-5 23.57481,4.4057 32.32689,11.72543 11.05872,9.24886 18.09279,23.1501 18.09272,38.69422 -1.3e-4,16.43705 -7.86575,31.03696 -20.03832,40.24126 -8.44882,6.38859 -18.97255,10.1778 -30.38129,10.17776 -14.11596,-1.3e-4 -26.87701,-5.8012 -36.02928,-15.14935 -8.90175,-9.09227 -14.38958,-21.54009 -14.38969,-35.26967 -5e-5,-11.16314 3.62777,-21.47896 9.76876,-29.83278 9.17737,-12.48428 23.96756,-20.58672 40.65021,-20.58687 z"
             sodipodi:nodetypes="cscscscsc" /></g></g><ellipse
         style="fill:#80aaff;fill-opacity:1;stroke-width:3.6462;stroke-linecap:round;stroke-linejoin:bevel"
         id="ellipse3227"
         cx="-197.78587"
         cy="480.93637"
         rx="42.541428"
         ry="42.536461"
         transform="matrix(0.55939544,-0.82890093,0.82873885,0.55963552,0,0)" /><ellipse
         style="fill:#99bbff;fill-opacity:1;stroke-width:3.6462;stroke-linecap:round;stroke-linejoin:bevel"
         id="ellipse3332"
         cx="-214.5681"
         cy="481.66907"
         rx="23.810774"
         ry="33.240723"
         transform="matrix(0.55939544,-0.82890093,0.82873885,0.55963552,0,0)" /><path
         style="fill:none;stroke:#ccdeff;stroke-width:3.6462;stroke-linecap:round;stroke-linejoin:bevel;stroke-dasharray:none;stroke-opacity:1"
         d="M 270.35476,467.71239 V 439.58967"
         id="path1452" /><path
         style="fill:none;stroke:#ccdeff;stroke-width:3.6462;stroke-linecap:round;stroke-linejoin:bevel;stroke-dasharray:none;stroke-opacity:1"
         d="m 256.29779,453.65103 h 28.11394"
         id="path1454" /><path
         style="fill:none;stroke:#ffffff;stroke-width:1.2154;stroke-linecap:round;stroke-linejoin:bevel;stroke-dasharray:3.6462, 3.6462;stroke-dashoffset:0;stroke-opacity:1"
         d="M 364.68296,312.72196 364.2267,433.71029"
         id="path19343"
         sodipodi:nodetypes="cc" /><text
         xml:space="preserve"
         style="font-size:12.863px;line-height:1.25;font-family:'Source Code Pro';-inkscape-font-specification:'Source Code Pro';text-align:end;letter-spacing:0px;word-spacing:0px;text-anchor:end;fill:#ffffff;fill-opacity:1;stroke-width:0.321597"
         x="521.78143"
         y="455.34348"
         id="text19776"
         transform="scale(0.99984392,1.0001561)"><tspan
           sodipodi:role="line"
           id="tspan19774"
           style="text-align:end;text-anchor:end;fill:#ffffff;fill-opacity:1;stroke-width:0.321597"
           x="521.78143"
           y="455.34348">$\SwimmingDirection_x &lt; 0$</tspan></text><text
         xml:space="preserve"
         style="font-size:12.863px;line-height:1.25;font-family:'Source Code Pro';-inkscape-font-specification:'Source Code Pro';text-align:start;letter-spacing:0px;word-spacing:0px;text-anchor:start;fill:#ffffff;fill-opacity:1;stroke-width:0.321597"
         x="367.54837"
         y="306.51245"
         id="text22179"
         transform="scale(0.99984392,1.0001561)"><tspan
           sodipodi:role="line"
           id="tspan22177"
           style="text-align:start;text-anchor:start;fill:#ffffff;fill-opacity:1;stroke-width:0.321597"
           x="367.54837"
           y="306.51245">$\SwimmingDirection$</tspan></text><text
         xml:space="preserve"
         style="font-size:12.863px;line-height:1.25;font-family:'Source Code Pro';-inkscape-font-specification:'Source Code Pro';text-align:center;letter-spacing:0px;word-spacing:0px;text-anchor:middle;fill:#80aaff;fill-opacity:1;stroke-width:0.321597"
         x="325.78622"
         y="312.19547"
         id="text22252"
         transform="scale(0.99984392,1.0001561)"><tspan
           sodipodi:role="line"
           id="tspan22250"
           style="text-align:center;text-anchor:middle;fill:#80aaff;fill-opacity:1;stroke-width:0.321597"
           x="325.78622"
           y="312.19547">\NameBhShort</tspan></text></g></g></svg>
