<?xml version="1.0" encoding="UTF-8" standalone="no"?>
<!-- Created with Inkscape (http://www.inkscape.org/) -->

<svg
   width="231.89615mm"
   height="201.20213mm"
   viewBox="0 0 231.89614 201.20213"
   version="1.1"
   id="svg5"
   inkscape:version="1.2.1 (9c6d41e410, 2022-07-14, custom)"
   sodipodi:docname="plankter_bh.svg"
   xml:space="preserve"
   xmlns:inkscape="http://www.inkscape.org/namespaces/inkscape"
   xmlns:sodipodi="http://sodipodi.sourceforge.net/DTD/sodipodi-0.dtd"
   xmlns="http://www.w3.org/2000/svg"
   xmlns:svg="http://www.w3.org/2000/svg"><sodipodi:namedview
     id="namedview7"
     pagecolor="#000000"
     bordercolor="#666666"
     borderopacity="1.0"
     inkscape:pageshadow="2"
     inkscape:pageopacity="0"
     inkscape:pagecheckerboard="false"
     inkscape:document-units="mm"
     showgrid="false"
     inkscape:zoom="1.0565576"
     inkscape:cx="554.15814"
     inkscape:cy="521.50493"
     inkscape:window-width="1916"
     inkscape:window-height="1037"
     inkscape:window-x="0"
     inkscape:window-y="20"
     inkscape:window-maximized="1"
     inkscape:current-layer="g798604"
     inkscape:showpageshadow="2"
     inkscape:deskcolor="#000000" /><defs
     id="defs2"><marker
       style="overflow:visible"
       id="Arrow2"
       refX="0"
       refY="0"
       orient="auto-start-reverse"
       inkscape:stockid="Arrow2"
       markerWidth="5"
       markerHeight="3.6363637"
       viewBox="0 0 7.7 5.6"
       inkscape:isstock="true"
       inkscape:collect="always"
       preserveAspectRatio="xMidYMid"><path
         transform="scale(0.7)"
         d="M -2,-4 9,0 -2,4 c 2,-2.33 2,-5.66 0,-8 z"
         style="fill:context-stroke;fill-rule:evenodd;stroke:none"
         id="arrow2L" /></marker><marker
       style="overflow:visible"
       id="Arrow2Mstart-1"
       refX="0"
       refY="0"
       orient="80"
       inkscape:stockid="Arrow2Mstart"
       inkscape:isstock="true"
       viewBox="0 0 6.9304588 5.1962256"
       markerWidth="6"
       markerHeight="4.4985986"
       preserveAspectRatio="xMidYMid"><path
         transform="scale(0.6)"
         d="M 8.7185878,4.0337352 -2.2072895,0.01601326 8.7185884,-4.0017078 c -1.7454984,2.3720609 -1.7354408,5.6174519 -6e-7,8.035443 z"
         style="fill:context-stroke;fill-rule:evenodd;stroke:context-stroke;stroke-width:0.625;stroke-linejoin:round"
         id="path752666-1" /></marker><marker
       style="overflow:visible"
       id="Arrow2Mstart-1-6"
       refX="0.68240988"
       refY="0.0041767759"
       orient="115.87501526"
       inkscape:stockid="Arrow2Mstart"
       inkscape:isstock="true"
       viewBox="0 0 6.9304588 5.1962256"
       markerWidth="6"
       markerHeight="4.4985986"
       preserveAspectRatio="xMidYMid"><path
         transform="scale(0.6)"
         d="M 8.7185878,4.0337352 -2.2072895,0.01601326 8.7185884,-4.0017078 c -1.7454984,2.3720609 -1.7354408,5.6174519 -6e-7,8.035443 z"
         style="fill:context-stroke;fill-rule:evenodd;stroke:context-stroke;stroke-width:0.625;stroke-linejoin:round"
         id="path752666-1-2" /></marker><g
       id="id-1382ddda-13d8-44c1-887b-2c417df8020d"
       style="fill:#ff7d7d;fill-opacity:1;stroke-width:0"><symbol
         overflow="visible"
         id="id-2987ecb6-e645-40dc-a4ab-cdce30e95433"
         style="fill:#ff7d7d;fill-opacity:1;stroke-width:0"><path
           style="fill:#ff7d7d;fill-opacity:1;stroke:#ff7d7d;stroke-width:0"
           d=""
           id="id-3b98700b-0855-4a10-80b3-a692d3e7d50b" /></symbol><symbol
         overflow="visible"
         id="id-58cb04d7-1877-44b5-aec1-81ac0bbb04ce"
         style="fill:#ff7d7d;fill-opacity:1;stroke-width:0"><path
           style="fill:#ff7d7d;fill-opacity:1;stroke:#ff7d7d;stroke-width:0"
           d="M 2.5,-6.921875 1.15625,-5.5625 1.328125,-5.390625 2.5,-6.40625 3.640625,-5.390625 3.8125,-5.5625 Z m 0,0"
           id="id-45a14c04-6293-4c36-8b8b-f648b538435f" /></symbol><symbol
         overflow="visible"
         id="id-ed676b78-a4b2-44bf-85bb-687430ab3d99"
         style="fill:#ff7d7d;fill-opacity:1;stroke-width:0"><path
           style="fill:#ff7d7d;fill-opacity:1;stroke:#ff7d7d;stroke-width:0"
           d=""
           id="id-98899169-4099-434d-b7cf-ec48906251fa" /></symbol><symbol
         overflow="visible"
         id="id-82ddcd87-eb09-4052-a770-267e129ec831"
         style="fill:#ff7d7d;fill-opacity:1;stroke-width:0"><path
           style="fill:#ff7d7d;fill-opacity:1;stroke:#ff7d7d;stroke-width:0"
           d="m 5.359375,-5.9375 c -0.140625,0.140625 -0.46875,0.421875 -0.46875,0.59375 0,0.09375 0.09375,0.203125 0.1875,0.203125 0.09375,0 0.140625,-0.078125 0.203125,-0.140625 C 5.390625,-5.421875 5.625,-5.703125 6.0625,-5.921875 6.125,-5.96875 6.234375,-6.015625 6.234375,-6.125 6.234375,-6.234375 6.15625,-6.28125 6.09375,-6.328125 5.875,-6.484375 5.765625,-6.65625 5.6875,-6.890625 5.65625,-6.984375 5.625,-7.125 5.484375,-7.125 c -0.140625,0 -0.203125,0.140625 -0.203125,0.21875 0,0.046875 0.078125,0.359375 0.234375,0.578125 H 2.15625 c -0.15625,0 -0.34375,0 -0.34375,0.203125 0,0.1875 0.1875,0.1875 0.34375,0.1875 z m 0,0"
           id="id-fb2ec67b-5599-4f38-8ad5-637b70218c92" /></symbol><symbol
         overflow="visible"
         id="id-f927e3e3-e837-4cc7-85da-5a0c1301db5a"
         style="fill:#ff7d7d;fill-opacity:1;stroke-width:0"><path
           style="fill:#ff7d7d;fill-opacity:1;stroke:#ff7d7d;stroke-width:0"
           d="m 1.328125,-0.828125 c 0.53125,-0.578125 0.828125,-0.828125 1.1875,-1.140625 0,0 0.609375,-0.53125 0.96875,-0.890625 C 4.4375,-3.78125 4.65625,-4.265625 4.65625,-4.3125 c 0,-0.09375 -0.09375,-0.09375 -0.109375,-0.09375 -0.078125,0 -0.09375,0.015625 -0.15625,0.109375 -0.296875,0.484375 -0.5,0.640625 -0.734375,0.640625 -0.25,0 -0.359375,-0.15625 -0.515625,-0.328125 -0.1875,-0.21875 -0.359375,-0.421875 -0.6875,-0.421875 -0.75,0 -1.203125,0.921875 -1.203125,1.140625 0,0.046875 0.03125,0.109375 0.109375,0.109375 0.09375,0 0.109375,-0.046875 0.140625,-0.109375 0.1875,-0.46875 0.765625,-0.46875 0.84375,-0.46875 0.203125,0 0.390625,0.0625 0.625,0.140625 0.40625,0.15625 0.515625,0.15625 0.765625,0.15625 -0.359375,0.421875 -1.1875,1.140625 -1.375,1.296875 l -0.90625,0.84375 C 0.78125,-0.625 0.421875,-0.0625 0.421875,0.015625 c 0,0.09375 0.109375,0.09375 0.125,0.09375 0.078125,0 0.09375,-0.015625 0.15625,-0.125 0.234375,-0.359375 0.53125,-0.625 0.859375,-0.625 0.21875,0 0.328125,0.09375 0.578125,0.375 0.15625,0.21875 0.34375,0.375 0.625,0.375 1,0 1.578125,-1.265625 1.578125,-1.53125 0,-0.046875 -0.046875,-0.109375 -0.125,-0.109375 -0.09375,0 -0.109375,0.0625 -0.140625,0.140625 C 3.84375,-0.75 3.203125,-0.5625 2.875,-0.5625 c -0.1875,0 -0.375,-0.0625 -0.578125,-0.125 -0.34375,-0.125 -0.5,-0.171875 -0.703125,-0.171875 -0.015625,0 -0.171875,0 -0.265625,0.03125 z m 0,0"
           id="id-fdde69c8-6119-48b4-bde0-82b85acc73a8" /></symbol></g><g
       id="id-e69a1900-e63a-41df-b033-91322fbc874e"
       style="fill:#33aaff;fill-opacity:1;stroke-width:0"><symbol
         overflow="visible"
         id="id-3853542e-b35b-43ca-bdb3-a1686dd7421b"
         style="fill:#33aaff;fill-opacity:1;stroke-width:0"><path
           style="fill:#33aaff;fill-opacity:1;stroke:#33aaff;stroke-width:0"
           d=""
           id="id-0ca73283-5d78-4617-8437-d8f268c000db" /></symbol><symbol
         overflow="visible"
         id="id-f7fa66ab-907d-4510-963e-1eccb344ad6d"
         style="fill:#33aaff;fill-opacity:1;stroke-width:0"><path
           style="fill:#33aaff;fill-opacity:1;stroke:#33aaff;stroke-width:0"
           d="m 5.359375,-5.9375 c -0.140625,0.140625 -0.46875,0.421875 -0.46875,0.59375 0,0.09375 0.09375,0.203125 0.1875,0.203125 0.09375,0 0.140625,-0.078125 0.203125,-0.140625 C 5.390625,-5.421875 5.625,-5.703125 6.0625,-5.921875 6.125,-5.96875 6.234375,-6.015625 6.234375,-6.125 6.234375,-6.234375 6.15625,-6.28125 6.09375,-6.328125 5.875,-6.484375 5.765625,-6.65625 5.6875,-6.890625 5.65625,-6.984375 5.625,-7.125 5.484375,-7.125 c -0.140625,0 -0.203125,0.140625 -0.203125,0.21875 0,0.046875 0.078125,0.359375 0.234375,0.578125 H 2.15625 c -0.15625,0 -0.34375,0 -0.34375,0.203125 0,0.1875 0.1875,0.1875 0.34375,0.1875 z m 0,0"
           id="id-06f2faa5-9274-4229-a0d9-4fe96570d439" /></symbol><symbol
         overflow="visible"
         id="id-0fa9e3b9-5da2-4c5f-bcd0-c53f29e34b3b"
         style="fill:#33aaff;fill-opacity:1;stroke-width:0"><path
           style="fill:#33aaff;fill-opacity:1;stroke:#33aaff;stroke-width:0"
           d="M 3.484375,-0.5625 C 3.59375,-0.15625 3.953125,0.109375 4.375,0.109375 4.71875,0.109375 4.953125,-0.125 5.109375,-0.4375 5.28125,-0.796875 5.40625,-1.40625 5.40625,-1.421875 c 0,-0.109375 -0.078125,-0.109375 -0.109375,-0.109375 -0.109375,0 -0.109375,0.046875 -0.140625,0.1875 -0.140625,0.5625 -0.328125,1.234375 -0.75,1.234375 -0.203125,0 -0.3125,-0.125 -0.3125,-0.453125 0,-0.21875 0.125,-0.6875 0.203125,-1.046875 L 4.578125,-2.6875 C 4.609375,-2.828125 4.703125,-3.203125 4.75,-3.359375 4.796875,-3.59375 4.890625,-3.96875 4.890625,-4.03125 c 0,-0.171875 -0.140625,-0.265625 -0.28125,-0.265625 -0.046875,0 -0.3125,0.015625 -0.390625,0.34375 -0.1875,0.734375 -0.625,2.484375 -0.75,3 -0.015625,0.046875 -0.40625,0.84375 -1.140625,0.84375 -0.515625,0 -0.609375,-0.453125 -0.609375,-0.8125 0,-0.5625 0.28125,-1.34375 0.53125,-2.03125 0.125,-0.3125 0.171875,-0.453125 0.171875,-0.640625 0,-0.4375 -0.3125,-0.8125 -0.8125,-0.8125 -0.953125,0 -1.3125,1.453125 -1.3125,1.53125 0,0.109375 0.09375,0.109375 0.109375,0.109375 0.109375,0 0.109375,-0.03125 0.15625,-0.1875 0.25,-0.859375 0.640625,-1.234375 1.015625,-1.234375 0.09375,0 0.25,0.015625 0.25,0.328125 0,0.234375 -0.109375,0.53125 -0.171875,0.671875 -0.375,1 -0.578125,1.609375 -0.578125,2.09375 0,0.953125 0.6875,1.203125 1.21875,1.203125 0.65625,0 1.015625,-0.453125 1.1875,-0.671875 z m 0,0"
           id="id-2d6aa263-f6ce-4e30-a9d2-5ff97dc61bbc" /></symbol><symbol
         overflow="visible"
         id="id-44a5c21a-ce62-42d0-9540-96b39a3320e2"
         style="fill:#33aaff;fill-opacity:1;stroke-width:0"><path
           style="fill:#33aaff;fill-opacity:1;stroke:#33aaff;stroke-width:0"
           d=""
           id="id-63f427be-cc8c-4d12-8a0e-158477a1435a" /></symbol><symbol
         overflow="visible"
         id="id-e334649a-38ec-495a-bf55-fb465f849296"
         style="fill:#33aaff;fill-opacity:1;stroke-width:0"><path
           style="fill:#33aaff;fill-opacity:1;stroke:#33aaff;stroke-width:0"
           d="M 7.78125,-6.59375 C 7.796875,-6.625 7.828125,-6.6875 7.828125,-6.734375 7.828125,-6.796875 7.8125,-6.8125 7.59375,-6.8125 H 0.703125 c -0.21875,0 -0.234375,0.015625 -0.234375,0.078125 0,0.046875 0.03125,0.109375 0.046875,0.140625 L 3.875,0.140625 c 0.078125,0.125 0.109375,0.1875 0.265625,0.1875 0.171875,0 0.203125,-0.0625 0.28125,-0.1875 z m -6.078125,0.5 h 5.46875 l -2.71875,5.484375 z m 0,0"
           id="id-3f56303d-763f-47a7-a93b-1283c32f79f4" /></symbol></g><g
       id="id-237fd5ef-e2bb-494e-b344-1df375c10e6c"
       style="fill:#000000;fill-opacity:1;stroke-width:0"><symbol
         overflow="visible"
         id="id-0e896e62-ed34-4828-92cc-9fb4160c48cb"
         style="fill:#000000;fill-opacity:1;stroke-width:0"><path
           style="fill:#000000;fill-opacity:1;stroke:#000000;stroke-width:0"
           d=""
           id="id-e2970e73-e2eb-49a9-abed-f5997652b8d7" /></symbol><symbol
         overflow="visible"
         id="id-8cc1181c-a033-4743-825b-aae8fc6245ef"
         style="fill:#000000;fill-opacity:1;stroke-width:0"><path
           style="fill:#000000;fill-opacity:1;stroke:#000000;stroke-width:0"
           d="M 2.5,-6.921875 1.15625,-5.5625 1.328125,-5.390625 2.5,-6.40625 3.640625,-5.390625 3.8125,-5.5625 Z m 0,0"
           id="id-791d7265-a98e-4a6d-b4cf-cd40eec891b6" /></symbol><symbol
         overflow="visible"
         id="id-5684f43f-0247-48f9-939f-1f6cde6e6419"
         style="fill:#000000;fill-opacity:1;stroke-width:0"><path
           style="fill:#000000;fill-opacity:1;stroke:#000000;stroke-width:0"
           d="m 3.296875,2.390625 c 0,-0.03125 0,-0.046875 -0.171875,-0.21875 C 1.890625,0.921875 1.5625,-0.96875 1.5625,-2.5 c 0,-1.734375 0.375,-3.46875 1.609375,-4.703125 0.125,-0.125 0.125,-0.140625 0.125,-0.171875 0,-0.078125 -0.03125,-0.109375 -0.09375,-0.109375 -0.109375,0 -1,0.6875 -1.59375,1.953125 -0.5,1.09375 -0.625,2.203125 -0.625,3.03125 0,0.78125 0.109375,1.984375 0.65625,3.125 C 2.25,1.84375 3.09375,2.5 3.203125,2.5 c 0.0625,0 0.09375,-0.03125 0.09375,-0.109375 z m 0,0"
           id="id-71107169-11d7-4563-9880-4531fdbe231d" /></symbol><symbol
         overflow="visible"
         id="id-eb904d9f-bd20-4da5-a607-494a2d1d1a72"
         style="fill:#000000;fill-opacity:1;stroke-width:0"><path
           style="fill:#000000;fill-opacity:1;stroke:#000000;stroke-width:0"
           d="m 2.875,-2.5 c 0,-0.765625 -0.109375,-1.96875 -0.65625,-3.109375 -0.59375,-1.21875 -1.453125,-1.875 -1.546875,-1.875 -0.0625,0 -0.109375,0.046875 -0.109375,0.109375 0,0.03125 0,0.046875 0.1875,0.234375 0.984375,0.984375 1.546875,2.5625 1.546875,4.640625 0,1.71875 -0.359375,3.46875 -1.59375,4.71875 C 0.5625,2.34375 0.5625,2.359375 0.5625,2.390625 0.5625,2.453125 0.609375,2.5 0.671875,2.5 0.765625,2.5 1.671875,1.8125 2.25,0.546875 2.765625,-0.546875 2.875,-1.65625 2.875,-2.5 Z m 0,0"
           id="id-73eb122b-3c69-40ca-b425-b70d5a1cbf2c" /></symbol><symbol
         overflow="visible"
         id="id-85572e59-2761-4d90-a6ae-0a4d08a4cccd"
         style="fill:#000000;fill-opacity:1;stroke-width:0"><path
           style="fill:#000000;fill-opacity:1;stroke:#000000;stroke-width:0"
           d="m 6.84375,-3.265625 c 0.15625,0 0.34375,0 0.34375,-0.1875 C 7.1875,-3.65625 7,-3.65625 6.859375,-3.65625 h -5.96875 c -0.140625,0 -0.328125,0 -0.328125,0.203125 0,0.1875 0.1875,0.1875 0.328125,0.1875 z m 0.015625,1.9375 c 0.140625,0 0.328125,0 0.328125,-0.203125 0,-0.1875 -0.1875,-0.1875 -0.34375,-0.1875 H 0.890625 c -0.140625,0 -0.328125,0 -0.328125,0.1875 0,0.203125 0.1875,0.203125 0.328125,0.203125 z m 0,0"
           id="id-d610bd68-e9bf-4ba8-b9df-6486125aaa15" /></symbol><symbol
         overflow="visible"
         id="id-28919ab6-563f-4d36-acb4-8401364c3229"
         style="fill:#000000;fill-opacity:1;stroke-width:0"><path
           style="fill:#000000;fill-opacity:1;stroke:#000000;stroke-width:0"
           d="m 2.34375,-2.484375 c 0,-1.25 0.96875,-1.96875 1.3125,-2.21875 0.265625,-0.203125 0.484375,-0.5625 0.484375,-0.984375 0,-0.578125 -0.40625,-1.34375 -1.890625,-1.34375 -1.078125,0 -1.6875,0.6875 -1.6875,1.328125 0,0.34375 0.21875,0.484375 0.453125,0.484375 0.28125,0 0.453125,-0.203125 0.453125,-0.46875 0,-0.4375 -0.40625,-0.4375 -0.546875,-0.4375 0.296875,-0.53125 0.875,-0.6875 1.296875,-0.6875 1.09375,0 1.09375,0.6875 1.09375,1.078125 0,0.578125 -0.15625,0.765625 -0.34375,0.9375 -0.65625,0.71875 -0.875,1.640625 -0.875,2.25 v 0.4375 c 0,0.1875 0,0.25 0.125,0.25 0.125,0 0.125,-0.09375 0.125,-0.28125 z M 2.734375,-0.53125 C 2.734375,-0.8125 2.5,-1.0625 2.21875,-1.0625 c -0.296875,0 -0.53125,0.25 -0.53125,0.53125 C 1.6875,-0.234375 1.921875,0 2.21875,0 2.5,0 2.734375,-0.234375 2.734375,-0.53125 Z m 0,0"
           id="id-c85e584b-e893-4cbf-9b28-f2340f04a153" /></symbol><symbol
         overflow="visible"
         id="id-c346357e-2fc7-44ce-b056-26e91474a902"
         style="fill:#000000;fill-opacity:1;stroke-width:0"><path
           style="fill:#000000;fill-opacity:1;stroke:#000000;stroke-width:0"
           d=""
           id="id-18966f70-6bad-4616-ab63-6f54f2944a33" /></symbol><symbol
         overflow="visible"
         id="id-6014f572-9378-46ed-8706-b354d6a65cb2"
         style="fill:#000000;fill-opacity:1;stroke-width:0"><path
           style="fill:#000000;fill-opacity:1;stroke:#000000;stroke-width:0"
           d="m 5.359375,-5.9375 c -0.140625,0.140625 -0.46875,0.421875 -0.46875,0.59375 0,0.09375 0.09375,0.203125 0.1875,0.203125 0.09375,0 0.140625,-0.078125 0.203125,-0.140625 C 5.390625,-5.421875 5.625,-5.703125 6.0625,-5.921875 6.125,-5.96875 6.234375,-6.015625 6.234375,-6.125 6.234375,-6.234375 6.15625,-6.28125 6.09375,-6.328125 5.875,-6.484375 5.765625,-6.65625 5.6875,-6.890625 5.65625,-6.984375 5.625,-7.125 5.484375,-7.125 c -0.140625,0 -0.203125,0.140625 -0.203125,0.21875 0,0.046875 0.078125,0.359375 0.234375,0.578125 H 2.15625 c -0.15625,0 -0.34375,0 -0.34375,0.203125 0,0.1875 0.1875,0.1875 0.34375,0.1875 z m 0,0"
           id="id-cdb9ccd6-5069-47f5-9d1a-0f8a30e52abb" /></symbol><symbol
         overflow="visible"
         id="id-9a2c00b3-a80a-48c6-b98d-881b4b446621"
         style="fill:#000000;fill-opacity:1;stroke-width:0"><path
           style="fill:#000000;fill-opacity:1;stroke:#000000;stroke-width:0"
           d="M 0.453125,1.21875 C 0.375,1.5625 0.34375,1.625 -0.09375,1.625 c -0.109375,0 -0.21875,0 -0.21875,0.1875 0,0.078125 0.046875,0.125 0.125,0.125 0.265625,0 0.5625,-0.03125 0.828125,-0.03125 0.34375,0 0.671875,0.03125 1,0.03125 0.046875,0 0.171875,0 0.171875,-0.203125 C 1.8125,1.625 1.71875,1.625 1.578125,1.625 c -0.5,0 -0.5,-0.0625 -0.5,-0.15625 0,-0.125 0.421875,-1.75 0.484375,-2 0.125,0.296875 0.40625,0.640625 0.921875,0.640625 1.15625,0 2.40625,-1.453125 2.40625,-2.921875 0,-0.9375 -0.578125,-1.59375 -1.328125,-1.59375 -0.5,0 -0.984375,0.359375 -1.3125,0.75 -0.09375,-0.546875 -0.53125,-0.75 -0.890625,-0.75 -0.46875,0 -0.65625,0.390625 -0.734375,0.5625 C 0.4375,-3.5 0.3125,-2.90625 0.3125,-2.875 c 0,0.109375 0.09375,0.109375 0.109375,0.109375 0.109375,0 0.109375,-0.015625 0.171875,-0.234375 0.171875,-0.703125 0.375,-1.1875 0.734375,-1.1875 0.171875,0 0.3125,0.078125 0.3125,0.453125 0,0.234375 -0.03125,0.34375 -0.078125,0.515625 z m 1.75,-4.328125 C 2.265625,-3.375 2.546875,-3.65625 2.71875,-3.8125 c 0.359375,-0.296875 0.640625,-0.375 0.8125,-0.375 0.390625,0 0.640625,0.34375 0.640625,0.9375 0,0.59375 -0.328125,1.734375 -0.515625,2.109375 -0.34375,0.703125 -0.8125,1.03125 -1.1875,1.03125 C 1.8125,-0.109375 1.6875,-0.9375 1.6875,-1 c 0,-0.015625 0,-0.03125 0.03125,-0.15625 z m 0,0"
           id="id-6950ad6f-c962-42e3-9602-686c624336be" /></symbol><symbol
         overflow="visible"
         id="id-011455c5-86ee-42cc-b6cf-fc9166ea59ca"
         style="fill:#000000;fill-opacity:1;stroke-width:0"><path
           style="fill:#000000;fill-opacity:1;stroke:#000000;stroke-width:0"
           d="m 2.046875,-3.984375 h 0.9375 c 0.203125,0 0.3125,0 0.3125,-0.203125 0,-0.109375 -0.109375,-0.109375 -0.28125,-0.109375 h -0.875 C 2.5,-5.71875 2.546875,-5.90625 2.546875,-5.96875 c 0,-0.171875 -0.125,-0.265625 -0.296875,-0.265625 -0.03125,0 -0.3125,0 -0.390625,0.359375 L 1.46875,-4.296875 h -0.9375 c -0.203125,0 -0.296875,0 -0.296875,0.1875 0,0.125 0.078125,0.125 0.28125,0.125 h 0.875 C 0.671875,-1.15625 0.625,-0.984375 0.625,-0.8125 0.625,-0.265625 1,0.109375 1.546875,0.109375 2.5625,0.109375 3.125,-1.34375 3.125,-1.421875 3.125,-1.53125 3.046875,-1.53125 3.015625,-1.53125 2.921875,-1.53125 2.90625,-1.5 2.859375,-1.390625 2.4375,-0.34375 1.90625,-0.109375 1.5625,-0.109375 c -0.203125,0 -0.3125,-0.125 -0.3125,-0.453125 0,-0.25 0.03125,-0.3125 0.0625,-0.484375 z m 0,0"
           id="id-f95d97aa-5511-4632-8d67-88f3dfb91a7c" /></symbol></g><marker
       style="overflow:visible"
       id="Arrow2Mstart-1-3"
       refX="0"
       refY="0"
       orient="auto"
       inkscape:stockid="Arrow2Mstart"
       inkscape:isstock="true"
       viewBox="0 0 6.9304588 5.1962256"
       markerWidth="5"
       markerHeight="3.7488322"
       preserveAspectRatio="xMidYMid"><path
         transform="scale(0.6)"
         d="M 8.7185878,4.0337352 -2.2072895,0.01601326 8.7185884,-4.0017078 c -1.7454984,2.3720609 -1.7354408,5.6174519 -6e-7,8.035443 z"
         style="fill:context-stroke;fill-rule:evenodd;stroke:context-stroke;stroke-width:0.625;stroke-linejoin:round"
         id="path752666-1-6" /></marker><marker
       style="overflow:visible"
       id="Arrow2Mstart-1-3-6"
       refX="0"
       refY="0"
       orient="auto"
       inkscape:stockid="Arrow2Mstart"
       inkscape:isstock="true"
       viewBox="0 0 6.9304588 5.1962256"
       markerWidth="6.9304585"
       markerHeight="5.1962256"
       preserveAspectRatio="xMidYMid"><path
         transform="scale(0.6)"
         d="M 8.7185878,4.0337352 -2.2072895,0.01601326 8.7185884,-4.0017078 c -1.7454984,2.3720609 -1.7354408,5.6174519 -6e-7,8.035443 z"
         style="fill:context-stroke;fill-rule:evenodd;stroke:context-stroke;stroke-width:0.625;stroke-linejoin:round"
         id="path752666-1-6-2" /></marker><marker
       style="overflow:visible"
       id="Arrow2Mstart-1-6-2"
       refX="3.7903733"
       refY="-0.039309923"
       orient="-65.89431"
       inkscape:stockid="Arrow2Mstart"
       inkscape:isstock="true"
       viewBox="0 0 6.9304588 5.1962256"
       markerWidth="6"
       markerHeight="4.4985986"
       preserveAspectRatio="xMidYMid"><path
         transform="scale(0.6)"
         d="M 8.7185878,4.0337352 -2.2072895,0.01601326 8.7185884,-4.0017078 c -1.7454984,2.3720609 -1.7354408,5.6174519 -6e-7,8.035443 z"
         style="fill:context-stroke;fill-rule:evenodd;stroke:context-stroke;stroke-width:0.625;stroke-linejoin:round"
         id="path752666-1-2-7" /></marker><marker
       style="overflow:visible"
       id="Arrow2Mstart-1-3-6-6"
       refX="0"
       refY="0"
       orient="auto"
       inkscape:stockid="Arrow2Mstart"
       inkscape:isstock="true"
       viewBox="0 0 6.9304588 5.1962256"
       markerWidth="6.9304585"
       markerHeight="5.1962256"
       preserveAspectRatio="xMidYMid"><path
         transform="scale(0.6)"
         d="M 8.7185878,4.0337352 -2.2072895,0.01601326 8.7185884,-4.0017078 c -1.7454984,2.3720609 -1.7354408,5.6174519 -6e-7,8.035443 z"
         style="fill:context-stroke;fill-rule:evenodd;stroke:context-stroke;stroke-width:0.625;stroke-linejoin:round"
         id="path752666-1-6-2-2" /></marker><marker
       style="overflow:visible"
       id="Arrow2Mstart-1-6-3"
       refX="2.6300499"
       refY="-0.097491309"
       orient="129.18685913"
       inkscape:stockid="Arrow2Mstart"
       inkscape:isstock="true"
       viewBox="0 0 6.9304588 5.1962256"
       markerWidth="3.9999998"
       markerHeight="2.9990656"
       preserveAspectRatio="xMidYMid"><path
         transform="scale(0.6)"
         d="M 8.7185878,4.0337352 -2.2072895,0.01601326 8.7185884,-4.0017078 c -1.7454984,2.3720609 -1.7354408,5.6174519 -6e-7,8.035443 z"
         style="fill:context-stroke;fill-rule:evenodd;stroke:context-stroke;stroke-width:0.625;stroke-linejoin:round"
         id="path752666-1-2-6" /></marker><marker
       style="overflow:visible"
       id="marker9741-47"
       refX="2.2179856"
       refY="0.040954135"
       orient="auto"
       inkscape:stockid="Arrow2Mstart"
       inkscape:isstock="true"
       viewBox="0 0 6.9304588 5.1962256"
       markerWidth="5"
       markerHeight="3.7488322"
       preserveAspectRatio="xMidYMid"><path
         transform="scale(0.6)"
         d="M 8.7185878,4.0337352 -2.2072895,0.01601326 8.7185884,-4.0017078 c -1.7454984,2.3720609 -1.7354408,5.6174519 -6e-7,8.035443 z"
         style="fill:context-stroke;fill-rule:evenodd;stroke:context-stroke;stroke-width:0.625;stroke-linejoin:round"
         id="path9739-75" /></marker><marker
       style="overflow:visible"
       id="marker13703"
       refX="2.2179856"
       refY="0.040954135"
       orient="auto"
       inkscape:stockid="Arrow2Mstart"
       inkscape:isstock="true"
       viewBox="0 0 6.9304588 5.1962256"
       markerWidth="5"
       markerHeight="3.7488322"
       preserveAspectRatio="xMidYMid"><path
         transform="scale(0.6)"
         d="M 8.7185878,4.0337352 -2.2072895,0.01601326 8.7185884,-4.0017078 c -1.7454984,2.3720609 -1.7354408,5.6174519 -6e-7,8.035443 z"
         style="fill:context-stroke;fill-rule:evenodd;stroke:context-stroke;stroke-width:0.625;stroke-linejoin:round"
         id="path13701" /></marker><marker
       style="overflow:visible"
       id="Arrow2-3"
       refX="0"
       refY="0"
       orient="auto-start-reverse"
       inkscape:stockid="Arrow2"
       markerWidth="5"
       markerHeight="3.6363637"
       viewBox="0 0 7.7 5.6"
       inkscape:isstock="true"
       inkscape:collect="always"
       preserveAspectRatio="xMidYMid"><path
         transform="scale(0.7)"
         d="M -2,-4 9,0 -2,4 c 2,-2.33 2,-5.66 0,-8 z"
         style="fill:context-stroke;fill-rule:evenodd;stroke:none"
         id="arrow2L-6" /></marker><marker
       style="overflow:visible"
       id="Arrow2-3-7"
       refX="0"
       refY="0"
       orient="auto-start-reverse"
       inkscape:stockid="Arrow2"
       markerWidth="5"
       markerHeight="3.6363637"
       viewBox="0 0 7.7 5.6"
       inkscape:isstock="true"
       inkscape:collect="always"
       preserveAspectRatio="xMidYMid"><path
         transform="scale(0.7)"
         d="M -2,-4 9,0 -2,4 c 2,-2.33 2,-5.66 0,-8 z"
         style="fill:context-stroke;fill-rule:evenodd;stroke:none"
         id="arrow2L-6-5" /></marker><marker
       style="overflow:visible"
       id="marker3738"
       refX="0"
       refY="0"
       orient="auto-start-reverse"
       inkscape:stockid="Arrow2"
       markerWidth="5"
       markerHeight="3.6363637"
       viewBox="0 0 7.7 5.6"
       inkscape:isstock="true"
       inkscape:collect="always"
       preserveAspectRatio="xMidYMid"><path
         transform="scale(0.7)"
         d="M -2,-4 9,0 -2,4 c 2,-2.33 2,-5.66 0,-8 z"
         style="fill:context-stroke;fill-rule:evenodd;stroke:none"
         id="path3736" /></marker><marker
       style="overflow:visible"
       id="Arrow2-3-7-3"
       refX="0"
       refY="0"
       orient="auto-start-reverse"
       inkscape:stockid="Arrow2"
       markerWidth="5"
       markerHeight="3.6363637"
       viewBox="0 0 7.7 5.6"
       inkscape:isstock="true"
       inkscape:collect="always"
       preserveAspectRatio="xMidYMid"><path
         transform="scale(0.7)"
         d="M -2,-4 9,0 -2,4 c 2,-2.33 2,-5.66 0,-8 z"
         style="fill:context-stroke;fill-rule:evenodd;stroke:none"
         id="arrow2L-6-5-6" /></marker></defs><g
     inkscape:label="Layer 1"
     id="layer1"
     transform="translate(77.518478,28.183064)"
     inkscape:groupmode="layer"><g
       id="g798604"
       transform="matrix(0.82290395,0,0,0.82264699,-198.70256,-251.54499)"
       style="stroke-width:1.00007"
       inkscape:label="scheme"><g
         id="g10511"
         transform="matrix(-1.045186,-0.65395435,-0.65789229,1.045556,939.47534,32.672329)"
         style="stroke-width:0.810356"
         inkscape:label="flow" /><g
         id="g23795"><path
           style="fill:none;stroke:#80aaff;stroke-width:3.6462;stroke-linecap:round;stroke-linejoin:bevel;stroke-dasharray:none;stroke-opacity:1;marker-start:url(#marker3738)"
           id="path1973"
           sodipodi:type="arc"
           sodipodi:cx="289.14005"
           sodipodi:cy="433.61319"
           sodipodi:rx="88.477959"
           sodipodi:ry="88.477959"
           sodipodi:start="4.9371444"
           sodipodi:end="5.2580513"
           sodipodi:arc-type="arc"
           d="m 308.85895,347.36057 a 88.477959,88.477959 0 0 1 26.19977,10.6231"
           sodipodi:open="true" /><path
           style="fill:none;stroke:#80aaff;stroke-width:3.6462;stroke-linecap:round;stroke-linejoin:bevel;stroke-dasharray:none;stroke-opacity:1;marker-end:url(#Arrow2-3-7)"
           d="M 288.71651,431.92059 287.12484,301.8512"
           id="path1919"
           sodipodi:nodetypes="cc"
           inkscape:transform-center-x="0.38436139"
           inkscape:transform-center-y="-55.407902" /><text
           xml:space="preserve"
           style="font-size:12.863px;line-height:1.25;font-family:'Source Code Pro';-inkscape-font-specification:'Source Code Pro';text-align:center;letter-spacing:0px;word-spacing:0px;text-anchor:middle;fill:#80aaff;fill-opacity:1;stroke-width:0.321597"
           x="314.73224"
           y="334.33237"
           id="text4367"
           transform="scale(0.99984392,1.0001561)"><tspan
             sodipodi:role="line"
             id="tspan4365"
             style="text-align:center;text-anchor:middle;fill:#80aaff;fill-opacity:1;stroke-width:0.321597"
             x="314.73224"
             y="334.33237">$\ReorientationTime$</tspan></text><text
           xml:space="preserve"
           style="font-size:12.863px;line-height:1.25;font-family:'Source Code Pro';-inkscape-font-specification:'Source Code Pro';text-align:start;letter-spacing:0px;word-spacing:0px;text-anchor:start;fill:#80aaff;fill-opacity:1;stroke-width:0.321597"
           x="280.71002"
           y="283.05911"
           id="text4046"
           transform="scale(0.99984392,1.0001561)"><tspan
             sodipodi:role="line"
             id="tspan4044"
             style="text-align:start;text-anchor:start;fill:#80aaff;fill-opacity:1;stroke-width:0.321597"
             x="280.71002"
             y="283.05911">$\ControlDirection = \Direction$</tspan></text></g><path
         style="fill:none;stroke:#ffffff;stroke-width:3.6462;stroke-linecap:round;stroke-linejoin:bevel;stroke-dasharray:none;stroke-opacity:1;marker-end:url(#Arrow2)"
         d="M 288.34095,432.53806 358.1199,323.32423"
         id="path2002"
         sodipodi:nodetypes="cc" /><ellipse
         style="fill:#80aaff;fill-opacity:1;stroke-width:3.6462;stroke-linecap:round;stroke-linejoin:bevel"
         id="ellipse3227"
         cx="-197.78587"
         cy="480.93637"
         rx="42.541428"
         ry="42.536461"
         transform="matrix(0.55939544,-0.82890093,0.82873885,0.55963552,0,0)" /><ellipse
         style="fill:#99bbff;fill-opacity:1;stroke-width:3.6462;stroke-linecap:round;stroke-linejoin:bevel"
         id="ellipse3332"
         cx="-214.5681"
         cy="481.66907"
         rx="23.810774"
         ry="33.240723"
         transform="matrix(0.55939544,-0.82890093,0.82873885,0.55963552,0,0)" /><path
         style="fill:none;stroke:#ffffff;stroke-width:3.6462;stroke-linecap:round;stroke-linejoin:bevel;stroke-dasharray:none;stroke-opacity:1"
         d="M 287.75442,445.87816 V 417.75544"
         id="path1334" /><path
         style="fill:none;stroke:#ffffff;stroke-width:3.6462;stroke-linecap:round;stroke-linejoin:bevel;stroke-dasharray:none;stroke-opacity:1"
         d="m 273.69745,431.8168 h 28.11394"
         id="path1944" /><text
         xml:space="preserve"
         style="font-size:12.863px;line-height:1.25;font-family:'Source Code Pro';-inkscape-font-specification:'Source Code Pro';text-align:start;letter-spacing:0px;word-spacing:0px;text-anchor:start;fill:#ffffff;stroke-width:0.321597"
         x="365.1684"
         y="301.84363"
         id="text2519"
         transform="scale(0.99984383,1.0001562)"><tspan
           sodipodi:role="line"
           id="tspan2517"
           style="text-align:start;text-anchor:start;fill:#ffffff;stroke-width:0.321597"
           x="365.1684"
           y="301.84363">$\SwimmingDirection$</tspan></text><text
         xml:space="preserve"
         style="font-size:12.863px;line-height:1.25;font-family:'Source Code Pro';-inkscape-font-specification:'Source Code Pro';text-align:end;letter-spacing:0px;word-spacing:0px;text-anchor:end;fill:#ffffff;stroke-width:0.321597"
         x="240.18855"
         y="434.92233"
         id="text2000"
         transform="scale(0.99984383,1.0001562)"><tspan
           sodipodi:role="line"
           id="tspan1998"
           style="text-align:end;text-anchor:end;fill:#ffffff;stroke-width:0.321597"
           x="240.18855"
           y="434.92233">$\ParticlePosition$</tspan></text><text
         xml:space="preserve"
         style="font-size:12.863px;line-height:1.25;font-family:'Source Code Pro';-inkscape-font-specification:'Source Code Pro';text-align:end;letter-spacing:0px;word-spacing:0px;text-anchor:end;fill:#b3ceff;fill-opacity:1;stroke-width:0.321597"
         x="263.37607"
         y="484.08417"
         id="text2000-3"
         transform="scale(0.99984383,1.0001562)"><tspan
           sodipodi:role="line"
           id="tspan1998-6"
           style="text-align:end;text-anchor:end;fill:#b3ceff;fill-opacity:1;stroke-width:0.321597"
           x="263.37607"
           y="484.08417">$m\vec{g}$</tspan></text><path
         style="fill:none;stroke:#ffffff;stroke-width:3.64619;stroke-linecap:round;stroke-linejoin:bevel;stroke-dasharray:none;stroke-opacity:1;marker-end:url(#Arrow2-3)"
         d="m 204.3839,358.62787 1.5532,-72.19896"
         id="path9114"
         sodipodi:nodetypes="cc" /><text
         xml:space="preserve"
         style="font-size:12.863px;line-height:1.25;font-family:'Source Code Pro';-inkscape-font-specification:'Source Code Pro';text-align:end;letter-spacing:0px;word-spacing:0px;text-anchor:end;fill:#ffffff;stroke-width:0.321597"
         x="192.63498"
         y="323.18539"
         id="text9126"
         transform="scale(0.99984383,1.0001562)"><tspan
           sodipodi:role="line"
           id="tspan9124"
           style="text-align:end;text-anchor:end;fill:#ffffff;stroke-width:0.321597"
           x="192.63498"
           y="323.18539">$\Direction$</tspan></text><path
         style="fill:none;stroke:#ccdeff;stroke-width:3.6462;stroke-linecap:round;stroke-linejoin:bevel;stroke-dasharray:none;stroke-opacity:1"
         d="M 270.35476,467.71239 V 439.58967"
         id="path1452" /><path
         style="fill:none;stroke:#ccdeff;stroke-width:3.6462;stroke-linecap:round;stroke-linejoin:bevel;stroke-dasharray:none;stroke-opacity:1"
         d="m 256.29779,453.65103 h 28.11394"
         id="path1454" /><path
         style="fill:#000000;stroke:#ccdeff;stroke-width:3.6462;stroke-linecap:round;stroke-linejoin:bevel;stroke-dasharray:none;stroke-opacity:1;marker-end:url(#Arrow2-3-7-3);fill-opacity:1"
         d="m 270.35476,453.65103 0,45.10751"
         id="path1919-7"
         sodipodi:nodetypes="cc"
         inkscape:transform-center-x="0.38436139"
         inkscape:transform-center-y="55.407903" /><path
         style="fill:#000000;fill-opacity:1;stroke:#ffffff;stroke-width:3.6462;stroke-linecap:round;stroke-linejoin:bevel;stroke-dasharray:none;stroke-opacity:1;marker-end:url(#Arrow2-3-7-3)"
         d="M 287.75442,431.8168 V 386.70929"
         id="path5635"
         sodipodi:nodetypes="cc"
         inkscape:transform-center-x="0.38436139"
         inkscape:transform-center-y="-55.407902" /><text
         xml:space="preserve"
         style="font-size:12.863px;line-height:1.25;font-family:'Source Code Pro';-inkscape-font-specification:'Source Code Pro';text-align:start;letter-spacing:0px;word-spacing:0px;text-anchor:start;fill:#ffffff;fill-opacity:1;stroke-width:0.321597"
         x="294.91183"
         y="417.53885"
         id="text5984"
         transform="scale(0.99984383,1.0001562)"><tspan
           sodipodi:role="line"
           id="tspan5982"
           style="text-align:start;text-anchor:start;fill:#ffffff;fill-opacity:1;stroke-width:0.321597"
           x="294.91183"
           y="417.53885">$\vec{F}_{\mathrm{buoyancy}}$</tspan></text></g></g></svg>
